<?xml version="1.0" encoding="UTF-8" standalone="no"?>
<!-- Created with Inkscape (http://www.inkscape.org/) -->

<svg
   xmlns:dc="http://purl.org/dc/elements/1.1/"
   xmlns:cc="http://creativecommons.org/ns#"
   xmlns:rdf="http://www.w3.org/1999/02/22-rdf-syntax-ns#"
   xmlns:svg="http://www.w3.org/2000/svg"
   xmlns="http://www.w3.org/2000/svg"
   xmlns:sodipodi="http://sodipodi.sourceforge.net/DTD/sodipodi-0.dtd"
   xmlns:inkscape="http://www.inkscape.org/namespaces/inkscape"
   version="1.1"
   id="svg5235"
   width="709.33331"
   height="705.33331"
   viewBox="0 0 709.33331 705.33331"
   sodipodi:docname="default-iconz.svg"
   inkscape:version="0.92.3 (2405546, 2018-03-11)">
  <metadata
     id="metadata5241">
    <rdf:RDF>
      <cc:Work
         rdf:about="">
        <dc:format>image/svg+xml</dc:format>
        <dc:type
           rdf:resource="http://purl.org/dc/dcmitype/StillImage" />
        <dc:title />
      </cc:Work>
    </rdf:RDF>
  </metadata>
  <defs
     id="defs5239" />
  <sodipodi:namedview
     pagecolor="#ffffff"
     bordercolor="#666666"
     borderopacity="1"
     objecttolerance="10"
     gridtolerance="10"
     guidetolerance="10"
     inkscape:pageopacity="0"
     inkscape:pageshadow="2"
     inkscape:window-width="1366"
     inkscape:window-height="684"
     id="namedview5237"
     showgrid="false"
     inkscape:zoom="0.50426473"
     inkscape:cx="456.57755"
     inkscape:cy="450.05686"
     inkscape:window-x="0"
     inkscape:window-y="28"
     inkscape:window-maximized="1"
     inkscape:current-layer="svg5235" />
  <rect
     style="opacity:0.98000004;fill:#a6b35c;fill-opacity:1;stroke:#000000;stroke-width:3.02399993;stroke-miterlimit:4;stroke-dasharray:none;stroke-opacity:0.94871796"
     id="rect5354"
     width="727.4574"
     height="707.08868"
     x="3.3349302"
     y="-2.7642436"
     clip-path="none" />
  <path
     style="fill:#000000;stroke-width:1"
     d="M 3.3349301,350.78012 V -2.7642435 H 367.06364 730.79233 V 350.78012 704.32447 H 367.06364 3.3349301 Z M 256.45271,683.2513 c 0.8208,-0.50726 1.49231,-2.59049 1.49231,-4.6294 0,-2.99131 -0.49161,-3.48878 -2.54608,-2.57647 -5.51163,2.44741 -14.39086,2.40476 -16.87667,-0.0811 -3.88929,-3.88929 -1.49868,-5.10297 10.05169,-5.10297 10.5224,0 10.82601,-0.10006 10.82601,-3.56882 0,-8.64248 -7.41469,-15.35213 -16.95141,-15.33962 -5.54662,0.008 -13.34036,4.9371 -15.093,9.54688 -5.25731,13.82779 4.17711,24.85514 20.00393,23.3815 4.18052,-0.38926 8.27243,-1.12277 9.09322,-1.63004 z m -18.87648,-21.11936 c 1.72673,-3.22647 7.18834,-3.869 9.8934,-1.16394 3.08083,3.08078 1.89808,4.07374 -4.8524,4.07374 -6.14747,0 -6.4919,-0.19879 -5.041,-2.9098 z m 126.94131,21.17357 c 2.20057,-1.14792 4.00102,-1.47124 4.00102,-0.71848 0,0.75275 2.29149,1.3686 5.09219,1.3686 h 5.09221 v -11.44309 c 0,-9.32096 -0.55133,-12.14402 -2.97287,-15.22253 -3.48829,-4.43461 -10.34368,-6.07588 -19.58801,-4.68961 -5.46696,0.8198 -6.53741,1.5041 -6.53741,4.17897 0,2.95004 0.69607,3.19757 8.95572,3.18442 11.72122,-0.0187 13.01455,2.90589 1.89925,4.29466 -9.46387,1.18242 -13.76481,4.57642 -13.76481,10.8621 0,2.86835 1.25183,5.24385 3.8335,7.2746 4.49649,3.53694 8.45967,3.79485 13.98921,0.91036 z m -7.08544,-7.2822 c -1.31329,-3.42244 0.73563,-5.16191 6.08012,-5.16191 5.4781,0 5.72142,0.31011 3.50024,4.4604 -1.77465,3.31595 -8.39118,3.80041 -9.58036,0.70151 z m 109.69693,7.12241 c 1.81244,-1.26949 3.23356,-1.58921 3.23356,-0.7275 0,0.8456 2.2915,1.53741 5.09221,1.53741 h 5.0922 v -15.27659 -15.27659 h -5.0922 -5.09221 l -0.0222,9.82067 c -0.0234,10.32716 -0.69756,12.40529 -4.47439,13.7932 -4.50224,1.65446 -6.09156,-1.27285 -6.81548,-12.5533 l -0.70983,-11.06057 h -4.90089 -4.90086 l 0.009,9.09322 c 0.01,11.0613 2.16467,19.42812 5.50508,21.3755 3.69594,2.15463 9.41826,1.83719 13.07695,-0.72545 z m 124.35523,0.73342 c 4.48922,-1.24669 5.45592,-2.17512 5.45592,-5.23975 0,-2.97488 -0.51245,-3.51447 -2.54609,-2.6807 -8.9623,3.67434 -19.27763,2.01928 -19.27763,-3.09303 0,-1.53536 2.723,-2.00426 11.63933,-2.00426 12.92415,0 13.33383,-0.40264 9.57155,-9.40703 -2.23991,-5.36085 -8.62371,-9.50687 -14.63824,-9.50687 -5.61334,0 -13.38869,3.69933 -15.30626,7.28233 -2.27437,4.24965 -2.14783,14.91965 0.22192,18.71424 4.101,6.56675 14.05478,8.94126 24.8795,5.93507 z m -16.3678,-20.0013 c 0,-4.81854 9.25217,-6.20635 11.63933,-1.7459 1.45087,2.71101 1.10643,2.9098 -5.04103,2.9098 -3.62906,0 -6.5983,-0.52374 -6.5983,-1.1639 z m -407.37615,3.3463 V 650.4926 h 7.2746 c 7.12841,0 7.27455,-0.0886 7.27455,-4.40698 v -4.40698 l -19.27762,0.40596 -19.27762,0.40596 -0.46039,4.00102 c -0.4486,3.89885 -0.27211,4.00102 6.91087,4.00102 h 7.37122 v 16.73154 16.73149 h 5.0922 5.09219 z m 29.09828,8.82421 c 0,-9.2933 1.72261,-14.60444 5.16516,-15.92545 4.70876,-1.80693 6.47419,1.76492 6.47419,13.09902 v 10.73371 h 5.0922 5.09219 v -12.43287 c 0,-11.26051 -0.33677,-12.7697 -3.57116,-16.00409 -4.04003,-4.04003 -9.08002,-4.58602 -13.24602,-1.43505 -4.46278,3.37547 -5.00656,2.7384 -5.00656,-5.86558 v -8.0942 l -4.72846,0.45588 -4.72847,0.45593 -0.4026,21.46002 -0.40264,21.45996 h 5.13111 5.13106 z m 113.56602,-6.69142 c 1.82049,-8.0293 3.75246,-14.08539 4.29327,-13.45797 0.54081,0.62741 1.76365,4.79411 2.71744,9.25929 4.04298,18.92736 3.96695,18.79738 10.99841,18.79738 h 6.31567 l 4.53961,-19.27761 c 2.4968,-10.60269 4.5343,-20.13751 4.52781,-21.18845 -0.008,-1.27768 -1.5785,-1.75978 -4.74029,-1.45491 -4.70354,0.45353 -4.74694,0.53081 -8.22828,14.65756 -1.9249,7.8109 -3.75618,13.94531 -4.0695,13.632 -0.31331,-0.31334 -2.02643,-6.70411 -3.80692,-14.20166 l -3.23724,-13.632 -5.24747,-0.44101 -5.24748,-0.44105 -3.31857,14.63649 c -1.8252,8.0501 -3.63751,14.31758 -4.02727,13.92777 -0.3898,-0.3898 -2.11822,-6.77775 -3.84095,-14.19543 -2.73796,-11.78948 -3.54833,-13.54698 -6.4392,-13.96555 -7.10848,-1.02915 -7.33399,-0.0205 -3.57872,16.0044 6.58446,28.09754 5.52391,25.93945 12.7474,25.93945 h 6.33227 z m 87.23369,6.96043 c 0.0304,-10.8322 2.38463,-14.80478 9.10522,-15.36447 4.67525,-0.38931 5.42248,-0.94695 5.42248,-4.04668 0,-4.82481 -3.85686,-6.03082 -9.29877,-2.90757 -2.84854,1.63486 -4.63225,1.98561 -4.96841,0.97713 -0.28845,-0.86535 -2.76139,-1.57332 -5.4954,-1.57332 h -4.97096 v 15.27659 15.27659 h 5.0922 5.09219 l 0.0214,-7.63827 z m 39.26126,-9.09322 V 650.4926 h 7.37121 c 7.18298,0 7.35945,-0.10212 6.91084,-4.00102 l -0.46037,-4.00102 -19.27762,-0.40596 -19.27762,-0.40596 v 4.40698 c 0,4.25315 0.22854,4.40698 6.54712,4.40698 h 6.54711 v 16.73154 16.73149 h 5.81967 5.81966 z m 64.01625,7.90638 c 0,-11.54477 1.6207,-14.45353 8.05321,-14.45353 4.63118,0 5.04101,-0.35484 5.04101,-4.36474 0,-3.57208 -0.60176,-4.36475 -3.31354,-4.36475 -1.82248,0 -4.76868,1.01922 -6.54713,2.26487 -1.81243,1.26948 -3.23355,1.58919 -3.23355,0.72749 0,-0.8456 -2.2915,-1.53741 -5.0922,-1.53741 h -5.09221 v 15.27659 15.27659 h 5.09221 5.0922 z m 39.02016,5.56092 c -0.33316,-2.33918 -1.70182,-3.47528 -4.82966,-4.00903 -4.12766,-0.70443 -4.38865,-1.15935 -4.80451,-8.37515 l -0.43977,-7.63027 h 5.16824 c 4.54285,0 5.16824,-0.44013 5.16824,-3.63724 0,-3.18697 -0.63046,-3.6373 -5.0922,-3.6373 -4.86697,0 -5.0922,-0.22933 -5.0922,-5.18441 0,-4.97259 -0.19315,-5.16574 -4.72848,-4.72847 -4.15774,0.40091 -4.7835,1.02664 -5.18438,5.18441 -0.28241,2.92887 -1.2514,4.72847 -2.5461,4.72847 -1.2596,0 -2.09019,1.44539 -2.09019,3.6373 0,2.26317 0.82445,3.63724 2.18236,3.63724 1.68808,0 2.18237,1.90392 2.18237,8.40578 0,12.06674 2.36799,14.87286 12.55047,14.87286 7.4792,0 7.98935,-0.22036 7.55581,-3.26419 z m 16.2666,-18.6517 v -21.9159 l -4.72847,0.45588 -4.72848,0.45593 -0.40262,21.46002 -0.40262,21.45996 h 5.1311 5.13109 z M 468.01784,599.9343 c -4.2488,-22.689 -31.39019,-63.21628 -53.45141,-79.81315 -11.67413,-8.78256 -14.59344,-9.84115 -19.76487,-7.16692 -5.51179,2.85028 -6.00614,4.75224 -3.99428,15.36735 1.66537,8.78684 1.95965,9.21592 9.7194,14.17195 19.37305,12.37325 42.50663,33.57043 59.25797,54.29776 3.81736,4.72347 7.46136,8.59051 8.09777,8.59352 0.63642,0.004 0.69735,-2.44974 0.13545,-5.45051 z m -86.62898,1.64736 c 10.71138,-3.06481 19.63792,-7.10957 22.01705,-9.97622 2.48089,-2.98932 1.93427,-3.38849 -6.94656,-5.07268 -6.1349,-1.16349 -10.79115,-0.77223 -25.85086,2.17207 -10.1025,1.97513 -20.27061,3.59119 -22.59584,3.59119 -5.66577,0 -5.46369,3.17968 0.50083,7.88045 4.02255,3.17021 6.21551,3.729 14.68895,3.74274 5.47826,0.009 13.66216,-1.04303 18.18643,-2.33755 z m 62.78527,-10.7054 c 0,-3.53339 -10.27995,-14.84898 -16.56482,-18.23359 l -5.22215,-2.81232 -6.50241,6.38162 c -3.57633,3.50991 -6.11895,7.00208 -5.65028,7.76043 2.35134,3.80454 26.12459,11.44814 31.39356,10.09365 1.40035,-0.35995 2.5461,-1.79537 2.5461,-3.18979 z m -94.56946,-7.49674 c 3.60091,-0.15819 8.34236,-1.17705 10.53655,-2.26408 l 3.98946,-1.97642 -5.30506,-7.60691 c -8.20687,-11.76783 -11.90622,-15.82956 -20.48387,-22.49025 -8.70047,-6.75604 -9.81982,-6.71732 -16.55586,0.57266 -6.22009,6.73165 -8.71041,11.47582 -7.59526,14.46936 0.56366,1.51311 3.51557,6.14801 6.55979,10.29977 4.55279,6.20918 6.63579,7.79224 11.73867,8.92133 3.41203,0.75498 7.18578,1.14533 8.38609,0.86748 1.20029,-0.27789 5.12857,-0.63469 8.72949,-0.79294 z m 149.92494,-2.87348 c 4.11758,-0.88305 6.93233,-2.11199 6.255,-2.73094 -0.67734,-0.61896 -8.76071,-4.92199 -17.96304,-9.56226 -16.68452,-8.41319 -31.26239,-17.33716 -37.45832,-22.93044 -5.10375,-4.60732 -5.50419,-1.79372 -0.62064,4.36093 2.42311,3.05376 7.58841,10.79005 11.47843,17.19166 5.65661,9.30885 8.08099,11.987 12.10817,13.37586 6.44129,2.22136 16.68107,2.33673 26.2004,0.29519 z m -97.66916,-5.63429 c 4.83477,-1.38658 11.76047,-6.6686 11.76047,-8.96933 0,-1.77699 -9.99898,-11.36331 -15.09121,-14.46841 -3.83653,-2.33945 -7.41377,-2.77545 -22.80932,-2.78 -17.11323,-0.005 -21.75098,0.94376 -21.75098,4.45022 0,0.53011 1.97336,3.44701 4.38526,6.48201 5.10489,6.42368 13.40584,12.74249 19.62084,14.93567 5.63215,1.98757 17.56516,2.16233 23.88494,0.34984 z M 295.88636,557.16592 c 2.04012,-3.81207 1.1289,-14.98569 -1.70431,-20.89773 -2.07303,-4.32584 -2.15913,-4.35177 -14.79631,-4.4621 -6.9912,-0.061 -12.71123,0.34175 -12.71123,0.89499 0,3.18923 22.75681,27.58681 25.73151,27.58681 0.99525,0 2.56137,-1.40488 3.48034,-3.12197 z m 311.96569,-11.50468 c 6.40162,-3.16316 14.5736,-8.28122 18.15995,-11.37346 l 6.52064,-5.62227 -7.97555,-1.712 c -16.174,-3.47186 -16.82427,-3.45603 -19.39804,0.47205 -5.53534,8.44801 -24.90105,23.71213 -34.86328,27.47931 -1.45107,0.54873 -2.28203,1.57419 -1.84655,2.2788 1.31301,2.1245 26.9655,-5.37692 39.40283,-11.52243 z M 311.845,547.28608 c 2.55846,-4.8002 11.34073,-15.89209 19.76952,-24.9687 8.34132,-8.9824 14.91439,-17.04424 14.60684,-17.91514 -0.75846,-2.14773 -6.93683,-1.4089 -19.45887,2.32698 -8.78786,2.62181 -11.69173,4.35692 -18.02583,10.77072 -8.20088,8.30401 -8.46385,9.27349 -6.72623,24.79675 1.8406,16.4435 3.32752,17.19785 9.83457,4.98939 z m 260.43129,-0.43759 c 10.51426,-6.29774 31.35248,-26.17015 29.9024,-28.51643 -0.44171,-0.7147 -3.19169,-1.68705 -6.11107,-2.16078 -2.91941,-0.47376 -6.54022,-1.97654 -8.04629,-3.33952 -3.25736,-2.94789 -3.68893,-2.65029 -4.59566,3.16882 -0.38156,2.44876 -2.16129,7.3591 -3.95497,10.91183 -3.98632,7.89578 -15.51794,21.73614 -18.11029,21.73614 -1.04044,0 -2.70676,0.98208 -3.70292,2.18239 -3.66587,4.41709 4.1505,2.28775 14.6188,-3.98245 z m -213.94213,-4.8514 c 6.00152,-1.25643 14.51277,-2.07426 18.91388,-1.81749 l 8.00204,0.46691 -0.47816,-4.88796 c -0.87523,-8.94699 -6.99357,-17.63175 -16.50801,-23.43246 -8.10999,-4.94451 -11.05383,-3.99993 -22.66665,7.27277 -12.80094,12.426 -13.44189,15.50725 -4.35835,20.95143 3.40086,2.0383 6.18338,3.71166 6.18338,3.71858 0,0.008 4.91034,-1.01539 10.91187,-2.27178 z m 279.47427,-9.59666 c 2.30387,-4.30481 0.3443,-3.06045 -3.24827,2.0627 -2.35261,3.35494 -2.56962,4.12927 -0.74711,2.66576 1.4128,-1.1345 3.21072,-3.26228 3.99538,-4.72846 z M 283.42057,525.3644 c 4.77103,-1.81394 23.99156,-18.85728 23.99156,-21.27392 0,-2.01223 -9.61936,-10.61088 -15.22907,-13.61312 -3.29514,-1.76346 -4.35232,-1.64991 -9.16084,0.98401 -2.98972,1.63767 -7.97219,3.3619 -11.07223,3.83171 -8.46776,1.28323 -11.09909,4.42151 -11.07369,13.20707 0.0118,4.07702 0.8431,9.0367 1.84735,11.02143 3.28395,6.4904 12.29947,9.03552 20.69692,5.84282 z m 358.40486,-4.50155 c 6.37802,-2.22341 5.77609,-5.21981 -1.28829,-6.4133 -3.22856,-0.5455 -7.69862,-2.53033 -9.93338,-4.41076 l -4.06325,-3.41902 -7.77557,4.66913 c -4.27656,2.56796 -8.01244,5.37968 -8.30195,6.24817 -1.23381,3.70143 22.93327,6.2642 31.36244,3.32578 z M 254.75436,514.7922 c 0.53035,-6.2469 -3.54863,-11.24598 -9.17609,-11.24598 -4.32005,0 -4.70599,2.74782 -1.18215,8.41692 6.48875,10.43907 9.63912,11.29951 10.35824,2.82906 z m 165.29114,-7.41727 c -3.80198,-12.5877 -19.6387,-25.19903 -34.82157,-27.72963 -4.87703,-0.81287 -7.28816,-0.21404 -14.54914,3.61355 -9.56245,5.04081 -17.67534,11.98613 -17.67534,15.13158 0,1.64269 2.8643,1.87343 15.39787,1.24055 15.96288,-0.80605 20.61678,0.22574 39.79886,8.82353 9.73324,4.36265 13.3924,4.02928 11.84932,-1.07958 z m 188.10182,1.66634 c 6.93004,-3.03035 18.83942,-12.60958 22.82242,-18.3571 9.53472,-13.75862 0.26748,-20.31796 -18.68657,-13.22632 -10.11064,3.78284 -15.32174,8.95942 -18.80122,18.67655 -3.61684,10.1008 -1.88677,14.68636 5.54096,14.68636 2.78021,0 6.8862,-0.80077 9.12441,-1.77949 z m 43.72779,-3.78483 c 3.87059,-1.84576 6.11829,-5.07063 12.11803,-17.38605 4.05127,-8.31593 6.98287,-16.11828 6.51461,-17.33848 -1.06006,-2.76253 -6.81894,-2.04214 -19.00825,2.37774 -7.90101,2.86493 -8.75961,3.58619 -9.04684,7.59945 -0.17458,2.43877 -1.64769,7.98962 -3.27356,12.33526 -3.03283,8.10599 -3.73894,13.79889 -1.93515,15.60268 1.30244,1.30244 8.50099,-0.26733 14.63116,-3.1906 z m -70.5907,-2.26937 c 3.20255,-2.43162 6.92629,-11.23512 6.92629,-16.37483 0,-4.44704 -3.6812,-9.25451 -7.08637,-9.25451 -3.0934,0 -16.19227,13.10608 -16.19227,16.20119 0,3.22143 8.22846,11.45598 11.3875,11.39591 1.33881,-0.0255 3.57299,-0.91091 4.96485,-1.96776 z m -326.35455,-7.31602 c 1.97068,-2.37449 1.8382,-24.87316 -0.16998,-28.86146 -2.27611,-4.52053 -14.67717,-2.33168 -16.33218,2.88276 -1.18489,3.7333 2.9519,18.79459 6.55014,23.84787 3.22921,4.53496 7.24347,5.39444 9.95202,2.13083 z m 90.16061,-4.71522 c 9.58258,-4.92931 10.33385,-5.65787 10.33385,-10.02116 0,-6.48415 -13.81673,-26.8556 -18.21455,-26.8556 -0.9368,0 -2.7659,1.17419 -4.06468,2.60934 -1.31311,1.45094 -4.8041,2.76775 -7.86379,2.96623 -12.34058,0.8005 -16.14715,2.78929 -20.74389,10.83791 -10.63457,18.62039 -5.6586,25.30011 19.09307,25.63052 10.0992,0.13489 12.07994,-0.3421 21.45999,-5.16724 z M 231.2149,481.35876 c -0.45243,-4.2011 -1.25574,-12.73505 -1.78522,-18.96444 -0.78055,-9.1837 -1.53841,-11.72932 -4.00634,-13.45797 -4.44689,-3.11469 -7.61662,-2.62526 -11.02016,1.70162 -6.17583,7.85132 -2.75138,21.37002 8.33473,32.90313 7.49896,7.80135 9.49668,7.28702 8.47699,-2.18234 z m 55.95284,-3.94769 c 11.76372,-11.29899 11.99805,-11.65715 9.4619,-14.45955 -1.43033,-1.58052 -5.81837,-3.56371 -9.75122,-4.40717 -3.93284,-0.84345 -9.51288,-2.52054 -12.40006,-3.72686 -7.31009,-3.05434 -10.28138,-2.7507 -12.95097,1.32364 -2.49333,3.80528 -1.98024,9.71254 1.77752,20.4653 2.87786,8.23493 5.92101,12.3906 9.07343,12.3906 1.49982,0 8.15506,-5.21367 14.7894,-11.58596 z m 271.20446,7.22607 c 4.91565,-1.86895 18.77746,-14.96377 24.2597,-22.91738 4.84773,-7.03312 6.91531,-18.42893 4.2479,-23.41303 -0.92472,-1.72784 -2.20643,-3.14155 -2.84823,-3.14155 -0.64179,0 -3.91192,2.61124 -7.26694,5.80281 -6.34948,6.0401 -17.64512,13.73139 -27.69922,18.86064 -7.00632,3.57436 -9.39084,7.46679 -8.11967,13.25442 1.02743,4.67782 8.47823,13.00417 11.63674,13.00417 1.08666,0 3.69204,-0.65254 5.78972,-1.45008 z M 379.45316,471.06408 c 2.7952,-3.99071 2.72222,-5.72741 -0.38647,-9.19723 -2.25617,-2.51827 -5.2645,-4.7084 -20.9503,-15.25215 -6.59794,-4.43507 -10.94702,-4.87034 -12.86447,-1.28756 -1.30594,2.44021 -1.25135,3.72263 0.24418,5.73604 13.2295,17.81043 19.03243,24.70966 21.17861,25.17966 3.93914,0.86262 10.37334,-1.74499 12.77845,-5.17876 z m -168.87997,-2.07214 c -2.20047,-3.80096 -5.91927,-9.36684 -8.26397,-12.36857 -3.06805,-3.92784 -3.54631,-5.18268 -1.70607,-4.47652 2.51913,0.96666 0.7503,-2.78401 -10.06711,-21.34642 l -2.96752,-5.0922 3.20222,2.79157 3.20216,2.79156 -2.05474,-5.70141 c -1.13014,-3.13576 -3.33437,-8.64758 -4.89833,-12.24851 -11.95596,-27.52793 -15.34681,-52.57367 -8.9579,-66.16553 5.119,-10.89019 13.58357,-19.16666 25.4294,-24.8643 9.98237,-4.80131 12.15261,-5.26007 30.19133,-6.38202 12.39864,-0.77114 20.96808,-2.00785 23.66776,-3.41564 4.48303,-2.33777 25.45844,-23.39438 34.47579,-34.60931 5.42161,-6.74287 14.35549,-24.49796 13.24086,-26.31478 -0.33185,-0.54091 -5.34135,0.88339 -11.13219,3.16512 -36.91346,14.54476 -43.8647,15.81682 -55.10268,10.08364 -7.2775,-3.7127 -8.85974,-2.75959 -2.82525,1.7019 4.53833,3.35536 5.7416,5.67417 2.94435,5.67417 -0.8441,0 -4.28133,1.22517 -7.63827,2.72261 -3.357,1.49743 -10.3592,4.5879 -15.56054,6.86771 -5.20129,2.27981 -12.73047,5.89819 -16.7315,8.04085 -4.00102,2.14266 -14.80377,7.6595 -24.00608,12.25964 -9.20236,4.60013 -19.25842,9.95808 -22.34676,11.90653 -5.84946,3.69042 -5.82429,3.39413 0.52302,-6.15192 6.04916,-9.09771 6.23206,-9.52387 3.66469,-8.53869 -1.60067,0.61424 -0.97794,-1.28239 2.03571,-6.20005 4.1016,-6.69307 7.15828,-15.08702 5.49397,-15.08702 -0.4182,0 -2.68579,3.10988 -5.03903,6.91084 -5.39003,8.70593 -26.3866,29.39732 -35.98108,35.45814 -12.45973,7.87074 -18.34031,9.64235 -38.34825,11.553 -18.560677,1.77248 -19.120922,1.92581 -19.120922,5.2327 0,2.40221 0.832668,3.40664 2.823972,3.40664 1.5532,0 3.228606,0.65473 3.723174,1.45495 0.51218,0.82872 -0.743658,1.4549 -2.917854,1.4549 h -3.816981 l 0.220637,17.09527 c 0.121381,9.40237 0.810551,20.69615 1.531539,25.09726 0.720944,4.40111 1.673355,10.94129 2.116407,14.53372 0.957056,7.75965 2.115768,9.65391 14.805011,24.20338 11.749703,13.47212 19.277617,18.47876 34.618517,23.02391 10.93278,3.23917 17.08279,4.30664 46.95801,8.15068 12.58243,1.61898 30.60462,8.91332 40.98325,16.58766 7.26658,5.37319 8.1475,4.59558 3.63125,-3.20546 z m 394.8055,3.14607 c 8.96146,-4.46566 13.69161,-9.91085 13.0907,-15.06958 -0.34192,-2.93548 -1.35048,-3.81439 -4.79768,-4.18093 -2.40061,-0.25532 -7.17016,-1.40106 -10.59898,-2.54612 -7.66779,-2.56073 -7.58746,-2.56133 -7.58746,0.0573 0,1.17659 -1.63678,5.71761 -3.63729,10.09114 -3.6339,7.94451 -4.49627,12.61412 -2.66733,14.44303 2.02293,2.02297 8.91711,0.83345 16.19804,-2.79484 z m 51.95462,-6.43139 c 1.19253,-0.98968 2.1682,-2.32375 2.1682,-2.96459 0,-2.5327 -7.94466,-10.40062 -13.21927,-13.09152 -8.69144,-4.43401 -12.27945,-3.773 -17.3248,3.19193 -4.59604,6.34467 -5.51252,10.54558 -2.68223,12.2948 5.90299,3.64822 26.88481,4.03292 31.0581,0.56938 z m 19.62719,-10.38683 c 0,-4.6085 -3.99311,-7.08017 -11.37029,-7.03812 -10.16541,0.0581 -9.63644,5.2606 1.11985,11.0138 7.39734,3.9566 10.25044,2.85004 10.25044,-3.97568 z m -427.60649,-0.2007 c 2.71347,-1.82859 5.12671,-4.32748 5.36272,-5.55309 0.52566,-2.7294 -5.00236,-10.03608 -7.59294,-10.03608 -2.9571,0 -9.38577,5.65127 -11.85042,10.41737 -4.30408,8.32322 4.56845,11.58209 14.08064,5.1718 z m 295.55541,-4.05295 c 12.03077,-3.58291 19.06567,-7.2857 25.47857,-13.41059 6.17927,-5.90175 6.08847,-9.34522 -0.317,-12.02159 -8.02803,-3.35431 -13.16677,-2.62226 -21.1927,3.01903 -4.01197,2.81996 -10.71604,6.4726 -14.89798,8.117 -12.37022,4.86424 -15.32934,9.07761 -10.28783,14.6484 3.12615,3.45439 8.74846,3.36101 21.21694,-0.35225 z m -209.20894,-3.13048 c 4.86898,-6.95142 2.29517,-12.49359 -10.56978,-22.7599 -10.65024,-8.49899 -13.21127,-9.54802 -20.13787,-8.24859 -6.18607,1.16053 -8.68104,6.2429 -9.08786,18.51244 -0.24121,7.27328 0.12756,8.4917 3.04274,10.05182 5.28654,2.82924 17.22402,5.34252 26.20463,5.51691 7.01347,0.13618 8.63045,-0.33478 10.54814,-3.07268 z m 80.2644,-4.0332 c 24.41157,-7.0267 40.5295,-12.70663 53.47678,-18.84508 11.73022,-5.56142 16.39043,-9.29425 19.76622,-15.83279 1.37867,-2.67037 8.79809,-29.41313 8.79809,-31.71213 0,-0.29582 -4.00028,2.40695 -8.88953,6.00624 -9.82806,7.235 -9.61174,7.18226 -20.50088,4.9965 -8.99763,-1.80611 -13.48556,-3.38572 -24.49956,-8.62301 -11.21751,-5.33404 -14.72712,-6.45416 -10.20525,-3.25705 12.88666,9.11121 5.41623,6.08148 -9.01546,-3.65631 -3.00142,-2.02525 -6.60233,-3.76259 -8.00202,-3.86081 -1.39968,-0.0982 -5.4911,-1.92603 -9.09201,-4.06187 -3.60092,-2.1358 -12.11217,-5.25099 -18.91389,-6.92256 -17.33407,-4.26012 -26.81653,-9.28924 -38.35374,-20.34145 -12.14326,-11.63278 -20.42331,-23.0314 -28.61241,-39.38898 -8.20731,-16.39392 -9.2135,-19.31863 -12.38252,-35.99246 -1.18714,-6.24615 -3.2603,-7.29091 -4.48175,-2.25856 -2.80918,11.57374 -32.4228,47.81358 -44.92953,54.98282 -4.77462,2.73694 -8.57021,3.44819 -21.13689,3.96084 -21.27196,0.86775 -24.42447,3.04013 -7.71982,5.31965 13.96031,1.90501 31.95233,5.34779 36.3088,6.94769 9.77835,3.59106 32.27715,23.63286 28.09499,25.02691 -0.95164,0.31721 0.13007,2.07504 2.47831,4.02701 l 4.16713,3.46408 -4.36474,-1.46173 -4.36475,-1.46172 4.36475,3.63347 c 2.40058,1.9984 5.04195,3.63671 5.86968,3.64072 1.95096,0.009 5.70877,6.42503 8.56035,14.61504 3.00323,8.62555 2.97461,8.73268 -2.06326,7.72511 -5.45025,-1.09004 -5.60981,0.21572 -0.36374,2.97661 2.20056,1.15812 6.67057,4.61214 9.93335,7.67568 3.26276,3.06349 8.1731,7.37567 10.91186,9.58261 l 4.97954,4.01258 -5.81966,-0.86608 c -3.20082,-0.47632 -6.96541,-1.18038 -8.36576,-1.56454 -1.40036,-0.38412 -2.54611,0.0132 -2.54611,0.88224 0,0.98326 -1.45667,1.21505 -3.85428,0.6133 -2.49976,-0.62741 -3.52722,-0.43814 -2.92358,0.53858 0.51189,0.82826 2.71463,1.95366 4.895,2.50088 4.00565,1.00535 6.86918,2.24475 26.61642,11.51993 9.91582,4.65743 10.38063,5.05661 5.0922,4.3733 -5.14179,-0.66437 -5.48072,-0.53444 -2.90983,1.11553 2.97245,1.9076 20.65701,10.08181 29.82575,13.78614 7.28295,2.94239 21.32589,1.60832 40.17175,-3.81633 z m 2.61,-71.66238 -2.77159,-3.27352 3.27355,2.77159 c 3.07634,2.60459 3.9359,3.77551 2.7716,3.77551 -0.27608,0 -1.74918,-1.47311 -3.27356,-3.27358 z m -209.33622,70.62304 c 3.28499,-7.8621 13.16447,-37.89828 14.9743,-45.52572 2.35681,-9.93282 3.11539,-17.32651 1.85741,-18.10398 -1.08444,-0.6702 -9.01275,7.99791 -18.5548,20.28633 -5.77118,7.43219 -9.22202,15.71736 -9.22202,22.14122 0,7.40235 5.79789,26.59845 8.03367,26.59845 0.36122,0 1.67136,-2.42834 2.91144,-5.3963 z m 76.12451,4.11134 c 1.07643,-0.68217 2.92423,-6.36232 4.10629,-12.62253 2.1363,-11.31401 2.12943,-11.39712 -1.15448,-13.87416 -10.53942,-7.94989 -25.71458,-2.70614 -31.09682,10.74546 -2.14039,5.34934 -2.14357,6.06045 -0.0369,8.17404 2.52943,2.5376 18.67528,8.58067 23.31483,8.72625 1.60039,0.0503 3.79053,-0.46685 4.86696,-1.14906 z m 341.35475,-5.08191 c 3.85678,-3.85676 9.50495,-20.42277 9.50495,-27.87782 0,-6.61641 -6.4719,-11.23028 -16.38502,-11.68099 -8.91122,-0.40517 -13.96388,2.34161 -24.1826,13.14641 -9.46167,10.00431 -9.90229,14.53745 -2.04275,21.01595 10.89158,8.97777 26.91257,11.58933 33.10542,5.39645 z m -392.64077,-2.55887 c 1.5244,-1.70831 7.19249,-6.64776 12.59576,-10.97656 13.3121,-10.6649 19.37824,-23.19367 13.56555,-28.01776 -4.17683,-3.46646 -25.08598,4.90892 -31.60927,12.66138 -4.50633,5.35548 -8.07136,21.91536 -5.67993,26.38377 2.11887,3.95912 7.57197,3.93422 11.12789,-0.0508 z m 434.76233,2.22295 c 3.67608,-1.41066 2.68999,-7.59927 -2.76516,-17.35395 -6.2911,-11.24959 -14.324,-18.76175 -17.97363,-16.8085 -4.66908,2.49879 -7.57829,12.03015 -8.0324,26.31605 l -0.20812,6.54715 8.72949,0.84659 c 13.54612,1.31374 17.76041,1.40794 20.24982,0.45266 z m -146.69416,-9.831 c 3.27411,-1.87247 10.63962,-5.19538 16.3678,-7.38428 5.72818,-2.18886 10.41488,-4.83674 10.41488,-5.88418 0,-1.04745 -2.31428,-3.9364 -5.14284,-6.41994 -4.13386,-3.62956 -6.4361,-4.51544 -11.73496,-4.51544 -3.62568,0 -7.76441,-0.62737 -9.19717,-1.39419 -4.33104,-2.31788 -8.04614,2.76586 -10.91086,14.93053 -1.42475,6.05002 -2.15841,11.6991 -1.63035,12.55352 1.5018,2.42998 5.36271,1.81463 11.8335,-1.88602 z m -17.65198,-7.47234 c 1.00112,-3.20081 2.66467,-8.57185 3.69673,-11.93567 2.21514,-7.21971 1.07787,-20.3459 -2.03229,-23.45604 -1.83584,-1.83582 -2.55912,-1.6136 -5.66871,1.74171 -2.99868,3.23562 -3.72376,5.88318 -4.56851,16.68179 -0.89231,11.40652 -0.3259,18.92788 1.69476,22.50473 1.56243,2.76567 5.19616,-0.15933 6.87802,-5.53652 z m 79.38296,-9.08294 c 10.26955,-6.52603 15.33154,-10.30528 18.75137,-13.99959 l 3.50511,-3.7864 -2.66418,-5.90807 c -1.46528,-3.24946 -4.14357,-7.62982 -5.95176,-9.73411 l -3.28758,-3.82599 -7.76595,5.99136 c -11.51756,8.88574 -25.86201,24.84814 -25.8864,28.8062 -0.0148,2.37154 8.89363,6.17418 13.84245,5.90889 2.4173,-0.12966 6.67292,-1.68313 9.45694,-3.45229 z M 197.8794,403.07908 c 4.59106,-10.02911 4.63317,-10.31328 2.26372,-15.2821 -2.74119,-5.74824 -4.06674,-5.76171 -8.3082,-0.0845 -2.23865,2.99644 -3.06194,6.46454 -3.24926,13.6877 -0.1379,5.3209 0.0642,10.1844 0.44959,10.80781 1.85764,3.0057 4.57156,0.20439 8.84415,-9.12894 z m 110.62392,6.94855 c 7.01703,-5.42956 -10.45236,-22.87468 -22.90649,-22.87468 -1.64714,0 -5.92378,2.92901 -9.50365,6.50883 -5.24743,5.24748 -6.50881,7.50311 -6.50881,11.63934 v 5.13047 l 9.09321,0.12748 c 5.00127,0.0701 12.36675,0.59224 16.36777,1.16026 7.52742,1.06869 10.34881,0.71403 13.45797,-1.69174 z m 248.5907,-9.64299 c 8.58628,-5.23574 23.75347,-17.56954 31.22808,-25.39432 4.36717,-4.57173 0.97622,-10.12955 -8.7148,-14.28358 l -6.46225,-2.77004 -7.81363,7.6973 c -9.09482,8.95937 -20.19669,29.53775 -18.61831,34.51075 1.18859,3.74493 4.50715,3.82158 10.38091,0.23989 z m -317.5807,-2.14526 c 4.16372,-1.90451 12.63403,-4.5893 18.82301,-5.96624 12.43378,-2.76621 20.4746,-7.27168 21.13893,-11.84459 0.5961,-4.10361 -2.04668,-5.91136 -12.59167,-8.61285 -10.52122,-2.69541 -15.27163,-1.68551 -24.90843,5.29535 -6.21787,4.5042 -11.67352,14.35335 -11.67352,21.0744 0,4.30955 -0.0908,4.30899 9.21168,0.0539 z m 289.39818,-3.39349 c 6.01744,-5.72494 7.50424,-8.87591 5.39016,-11.42322 -2.50831,-3.02229 -8.51979,-2.52855 -15.18709,1.24752 -6.11749,3.46467 -7.41339,6.15697 -5.88829,12.23339 0.83611,3.33133 1.45272,3.61582 6.17562,2.84937 2.88572,-0.46827 7.16505,-2.67647 9.5096,-4.90706 z m 117.44288,1.13551 c 1.30067,-2.43036 -0.49999,-4.79438 -13.29809,-17.459 -12.49702,-12.36666 -15.52071,-14.64809 -19.41413,-14.64809 -9.53895,0 -12.15822,10.38088 -5.9306,23.50457 2.18606,4.60681 3.49901,5.46629 11.4887,7.52098 18.84223,4.84558 25.00822,5.09115 27.15412,1.08154 z M 188.19962,385.52889 c 3.04629,-5.69199 -3.02271,-20.70098 -7.30135,-18.05665 -3.44952,2.13193 -0.22095,21.13566 3.59074,21.13566 1.13455,0 2.80435,-1.38555 3.71061,-3.07901 z m 23.52031,0.53289 c 4.14757,-4.71841 11.11937,-18.51585 11.57877,-22.91492 1.10915,-10.62048 -12.96113,-1.96804 -19.33925,11.89253 -2.30755,5.01464 -2.49692,6.72586 -1.08685,9.82067 1.97984,4.34522 5.64635,4.84325 8.84733,1.20172 z m 94.30059,-2.66832 c 2.18862,-5.92942 -3.5041,-11.61564 -19.51702,-19.49466 -13.97752,-6.87751 -19.85484,-8.71939 -19.80914,-6.20785 0.0785,4.30485 2.3724,7.66239 6.30207,9.2237 2.5245,1.00301 9.75895,5.99667 16.07667,11.09703 11.86013,9.57481 15.02837,10.58093 16.94742,5.38178 z m 176.98529,-1.38003 c 4.72364,-3.09504 15.65498,-25.53782 12.3525,-25.36055 -0.54428,0.0291 -2.88543,3.04305 -5.20255,6.69737 -8.98481,14.17004 -20.97741,15.86064 -41.54829,5.85697 -19.87548,-9.66547 -43.05257,-43.06466 -46.92779,-67.62494 -2.25777,-14.30935 -0.47762,-48.22532 3.35076,-63.8395 7.58167,-30.92205 22.43888,-51.36807 37.32692,-51.36807 5.0869,0 6.77374,1.25526 21.49119,15.99303 8.78405,8.79618 16.85199,15.99802 17.92877,16.00408 2.68981,0.0151 9.6952,-4.98617 18.68767,-13.34155 14.12396,-13.12334 19.11143,-8.1323 19.44869,19.46269 0.3559,29.12175 -8.28063,81.09993 -19.10548,114.98464 -1.55532,4.86861 -2.49474,9.18516 -2.08759,9.5923 0.88952,0.88947 0.41354,1.65829 6.14726,-9.92913 5.80036,-11.72212 11.01104,-29.98544 14.20384,-49.78405 0.47976,-2.97504 1.72821,-6.26508 2.77434,-7.31121 2.67065,-2.67066 9.80425,-32.15955 11.84357,-48.95892 0.42679,-3.5159 1.07194,-6.87138 1.43365,-7.45664 0.36172,-0.58524 1.0276,-4.14597 1.47976,-7.91272 0.71371,-5.94563 0.49122,-6.78485 -1.68759,-6.36506 -2.98095,0.57435 -4.404,5.27686 -5.57364,18.4181 -0.47527,5.33985 -1.43349,12.00033 -2.12935,14.80103 -1.06642,4.29201 -1.28864,3.32034 -1.41417,-6.18338 -0.0819,-6.20157 0.38114,-11.27559 1.02901,-11.27559 0.64786,0 1.89656,-3.76459 2.7749,-8.36577 0.87833,-4.60116 2.83345,-12.62138 4.34473,-17.8227 3.63967,-12.5266 4.34479,-32.44298 1.31247,-37.07089 -1.27345,-1.94353 -2.17588,-6.32591 -2.09832,-10.18992 0.0749,-3.72889 -0.6026,-7.51848 -1.50544,-8.42132 -0.90284,-0.90284 -1.72336,-1.18322 -1.82339,-0.62309 -0.10005,0.56015 -0.27129,1.50948 -0.38056,2.10964 -0.732,4.01985 -4.47364,10.54812 -6.04561,10.54812 -2.62526,0 -4.1111,7.92166 -2.16712,11.554 2.06939,3.8667 7.35063,3.92064 8.35359,0.0854 0.77717,-2.97192 3.33139,-4.08742 3.33139,-1.45492 0,1.86444 -5.37775,7.27458 -7.23101,7.27458 -0.77626,0 -2.86456,-1.96554 -4.64067,-4.36787 -1.85713,-2.51189 -3.62701,-3.72441 -4.16523,-2.85354 -0.51476,0.83289 -1.72616,-3.25764 -2.69199,-9.09008 -2.69486,-16.27367 -4.40263,-21.73895 -8.76914,-28.06342 -3.66875,-5.31381 -4.52335,-5.78821 -9.8319,-5.45786 -4.55938,0.28374 -6.52953,-0.39995 -9.13041,-3.16846 -3.67856,-3.91565 -5.58499,-3.66084 -12.7217,1.70041 -4.2937,3.22551 -4.91505,3.32066 -8.72948,1.33653 -2.25872,-1.1749 -5.69398,-3.83516 -7.63392,-5.9117 -4.47969,-4.79512 -7.96683,-4.76467 -14.52194,0.12678 -12.79741,9.54944 -26.58554,25.15558 -36.40053,41.19999 -5.79712,9.47646 -12.89101,28.94747 -9.53026,26.15831 1.1803,-0.97958 2.14602,-2.79207 2.14602,-4.02776 0,-1.23569 0.35296,-1.89374 0.78435,-1.46235 0.4314,0.4314 -0.50816,5.61453 -2.08793,11.51807 -3.55756,13.29457 -5.3189,26.01033 -3.60284,26.01033 0.70845,0 2.14186,-2.78253 3.18535,-6.18339 3.23709,-10.5502 12.82243,-29.13373 19.08236,-36.99588 3.28851,-4.13022 8.98618,-9.50127 12.66148,-11.93568 l 6.68236,-4.4262 5.2898,2.70138 c 11.07492,5.6557 23.3533,16.15572 31.41024,26.86086 4.57061,6.07294 8.94868,11.4363 9.72902,11.91859 1.40599,0.86894 6.06691,-2.03945 18.70985,-11.67482 7.21417,-5.49801 10.87243,-6.37001 12.20084,-2.90823 1.80879,4.71364 4.14435,0.23593 3.3734,-6.46744 -0.5858,-5.09341 0.54628,-2.77612 4.67916,9.57785 3.7985,11.35445 5.20884,17.75238 4.65042,21.09627 -0.74888,4.48422 -0.8607,4.32168 -1.70281,-2.47518 -1.5484,-12.49749 -4.37987,-16.73151 -11.18909,-16.73151 -2.74032,0 -24.10234,12.314 -26.61576,15.3425 -0.96608,1.16406 -2.66723,2.11648 -3.78033,2.11648 -1.11309,0 -8.64389,-6.87323 -16.73513,-15.27382 -13.1617,-13.66497 -26.82669,-24.00889 -31.71723,-24.00889 -5.16545,0 -21.89189,18.19466 -29.42526,32.00813 -3.41864,6.26855 -7.63439,19.01654 -11.19343,33.84764 -2.40618,10.02701 -2.10234,46.26625 0.4908,58.53946 8.86005,41.93424 22.05333,63.76731 48.56155,80.36268 17.38276,10.88245 32.01343,13.89575 40.49287,8.33979 z m 41.3035,-122.28675 c 0.0699,-1.69491 0.41456,-2.03965 0.87899,-0.87902 0.42029,1.05027 0.36861,2.30513 -0.11478,2.78859 -0.48345,0.48346 -0.82733,-0.37586 -0.76416,-1.90957 z m -0.11486,-6.34001 c 0,-3.513 0.80908,-3.8674 1.96317,-0.85993 0.45076,1.17469 0.19345,2.52275 -0.5718,2.9957 -0.76525,0.47296 -1.39137,-0.48814 -1.39137,-2.13577 z m -6.09622,126.37013 c 5.02797,-1.75277 7.56994,-6.77975 4.43326,-8.76723 -1.08587,-0.68808 -4.07912,-1.26107 -6.65162,-1.27331 -5.69587,-0.0268 -8.67919,4.13942 -6.23457,8.70725 1.80149,3.36609 2.36612,3.45515 8.45293,1.33329 z m 29.32999,-3.46163 c 3.91598,-4.71846 -12.51946,-13.65016 -16.87196,-9.16895 -0.99266,1.02205 -1.44163,3.5855 -1.00972,5.76527 0.6707,3.38489 1.60714,4.00052 6.80601,4.47428 3.31558,0.30211 6.76655,0.66375 7.66883,0.80351 0.90226,0.13985 2.43536,-0.70351 3.40684,-1.87411 z m -307.93629,-4.27699 c 2.54725,-1.92249 7.57761,-4.32102 11.17854,-5.33014 8.65085,-2.4242 10.59135,-4.32288 9.3743,-9.17214 -1.92598,-7.67364 -9.59375,-8.03458 -23.84907,-1.12272 -9.38054,4.5483 -12.05187,9.62007 -8.17968,15.52978 2.9508,4.50347 5.60592,4.5255 11.47591,0.0952 z m -27.89884,-20.2927 c -1.68241,-0.75071 -5.21152,-0.74225 -8.45711,0.0205 -4.71023,1.10664 -6.10209,2.38833 -9.01763,8.30378 -2.94867,5.98248 -3.19506,7.54966 -1.70234,10.82592 l 1.74544,3.83072 10.15946,-10.84621 c 9.23926,-9.86382 9.89794,-10.96292 7.27218,-12.13456 z m 209.97568,13.90839 c -7.17082,-6.39673 -20.45237,-22.40196 -23.77777,-28.65392 -4.52576,-8.50877 -3.70644,-9.83009 1.2259,-1.97705 4.55873,7.25821 7.94511,10.47025 6.35946,6.03209 -0.51516,-1.44193 -1.38694,-3.27639 -1.9373,-4.07657 -2.25867,-3.28404 -8.77936,-21.52598 -12.52525,-35.03999 -5.09778,-18.39133 -5.77456,-44.85469 -1.55384,-60.76025 4.55836,-17.17804 0.86754,-13.10163 -5.48091,6.05348 -1.4095,4.2529 -2.74291,7.52647 -2.96311,7.27458 -0.22022,-0.25189 -1.81965,-3.40419 -3.55431,-7.0051 -1.73465,-3.60091 -2.23399,-5.40137 -1.10962,-4.00101 1.12435,1.40034 2.82389,2.54609 3.77676,2.54609 2.01981,0 5.51234,-7.78622 7.38921,-16.47349 6.6971,-30.99833 7.34363,-38.6591 3.5298,-41.82433 -3.67677,-3.05144 -6.50078,-0.11173 -13.45624,14.0073 -6.04268,12.26627 -6.31952,13.38755 -5.71198,23.13486 0.35118,5.63408 1.08014,11.55322 1.61992,13.15363 0.53979,1.60041 -0.0566,0.67284 -1.32547,-2.06127 -2.42395,-5.22332 -2.46605,-24.42591 -0.0649,-29.58313 2.71739,-5.83633 -1.80248,-1.8334 -8.5828,7.60121 -4.00102,5.56728 -8.17934,10.14465 -9.28515,10.17191 -3.34044,0.0824 -11.10796,-9.3252 -13.04919,-15.80443 -1.00216,-3.34494 -2.11567,-9.49375 -2.47444,-13.66401 -0.65091,-7.56589 -0.64621,-7.55967 2.17685,2.88203 4.73337,17.50735 9.68258,24.91897 14.80821,22.17583 5.14275,-2.75231 23.10035,-33.8183 23.10035,-39.96272 0,-4.00896 -1.01313,-4.7757 -11.63931,-8.80877 -7.06571,-2.68173 -8.40021,-3.86621 -11.40501,-10.12302 l -3.40295,-7.08594 -2.71213,3.57591 c -1.49167,1.96676 -3.81631,6.01323 -5.16588,8.99219 -1.34956,2.97896 -3.01831,5.06737 -3.70832,4.64092 -0.69,-0.42644 -1.94673,1.04521 -2.79271,3.27034 -0.846,2.22514 -3.80079,8.81372 -6.56623,14.64131 -10.29771,21.70035 -12.23305,26.45709 -15.86811,39.0009 -5.46228,18.84923 -5.2646,32.86588 0.71123,50.42682 4.28845,12.60233 11.43457,27.62504 14.74858,31.00475 0.83903,0.85567 0.78968,-0.23203 -0.1199,-2.64081 -3.02727,-8.01772 -1.31543,-5.92084 4.53145,5.55065 7.22134,14.16819 12.57251,21.12517 21.95143,28.5388 7.83906,6.19643 12.01913,7.54903 7.34941,2.37814 -3.74387,-4.14575 -10.6451,-14.50428 -10.6451,-15.97806 0,-0.61445 0.9313,-1.11721 2.06955,-1.11721 1.13823,0 2.82188,2.27965 3.7414,5.06585 2.97394,9.01112 19.05406,22.77014 28.91322,24.73968 1.30689,0.26105 4.34029,0.94782 6.74091,1.52613 l 4.36474,1.05144 -5.81966,-5.11677 c -3.20082,-2.81423 -7.01827,-7.31788 -8.48326,-10.00814 l -2.66361,-4.8914 4.55241,5.0922 4.55241,5.0922 -5.16237,-10.5118 c -2.8393,-5.78151 -5.12787,-11.34658 -5.08574,-12.36679 0.0422,-1.02023 1.56802,1.09126 3.39087,4.69215 7.5224,14.86008 10.80441,19.11582 20.5386,26.63227 13.9542,10.77499 25.17147,16.81641 15.94989,8.59032 z m 88.07258,-7.27264 c 1.7586,-4.56973 3.72869,-9.61801 4.37797,-11.21841 10.19121,-25.12002 14.01049,-36.59627 16.70468,-50.19457 1.43165,-7.22593 1.9068,-8.25563 2.01407,-4.36476 0.0773,2.80072 -0.80811,9.02049 -1.96741,13.82171 -2.48474,10.29049 -2.54896,10.91532 -1.12029,10.90066 0.60015,-0.005 2.72796,-2.78869 4.72848,-6.18339 l 3.63728,-6.17219 0.44477,4.57902 c 0.42803,4.40671 0.80112,4.64626 9.91439,6.3658 9.4229,1.77799 9.49034,1.76695 13.66995,-2.23738 5.38078,-5.15511 7.11614,-12.14638 3.64499,-14.68456 -1.37275,-1.00378 -3.41435,-1.47263 -4.53688,-1.04187 -1.12253,0.43075 -2.04095,0.0251 -2.04095,-0.90163 0,-0.92664 -2.45517,-2.69784 -5.45593,-3.93599 -8.26497,-3.41024 -14.21198,-8.47091 -17.17294,-14.61346 l -2.66957,-5.53806 -1.42324,6.54712 c -0.78342,3.60387 -1.68549,5.40252 -2.0066,4.00101 -0.32085,-1.40036 -1.19008,-2.5461 -1.9316,-2.5461 -1.5514,0 -1.55614,0.0191 -2.17045,8.73551 -0.25401,3.60424 -1.09716,8.18722 -1.87367,10.18441 -1.05237,2.70671 -1.2082,1.40864 -0.61203,-5.09823 1.33348,-14.55459 -0.48058,-9.78306 -9.12676,24.00611 -1.9281,7.53497 -9.82149,31.33921 -10.855,32.73559 -0.59225,0.80017 -1.52661,4.56286 -2.07632,8.36149 -1.90525,13.16533 2.58608,12.30845 7.90306,-1.50783 z M 548.928,299.85807 c 4.9746,-1.59314 8.79964,-1.59314 5.0922,0 -1.60041,0.68773 -4.21926,1.23115 -5.81966,1.20763 -2.3392,-0.0344 -2.19654,-0.2712 0.72746,-1.20763 z m -22.3155,60.56509 c 1.16664,-2.50298 3.05431,-6.18765 4.19486,-8.18814 2.71025,-4.75387 2.65248,-7.92841 -0.18718,-10.28516 -6.29381,-5.22336 -11.56042,-0.93808 -13.15628,10.705 -0.69726,5.0871 -0.32063,7.70644 1.50977,10.49996 2.81879,4.30205 4.66877,3.6405 7.63883,-2.73166 z m 28.87827,3.42585 c 1.86806,-3.02262 -1.02815,-17.01585 -4.39283,-21.22431 l -3.367,-4.21138 -3.80378,3.56248 c -4.29642,4.02383 -8.0934,10.91372 -8.0934,14.686 0,4.69761 17.28886,11.01894 19.65701,7.18721 z m 52.4274,-3.54582 c 1.96413,-1.96417 3.57116,-4.48476 3.57116,-5.60138 0,-3.39154 -8.39336,-13.85755 -13.04047,-16.26068 -6.04959,-3.12839 -16.97676,-4.46619 -19.48391,-2.38546 -2.64711,2.19691 -3.14413,17.63175 -0.56803,17.6403 0.99645,0.004 5.41266,2.24275 9.81378,4.97656 9.71054,6.03182 14.87869,6.45944 19.70747,1.63066 z M 194.1574,351.77372 c 1.03934,-1.9173 0.7711,-3.65401 -0.9763,-6.32087 l -2.40937,-3.6772 -3.49143,3.27998 c -3.6955,3.47178 -5.93562,11.34826 -4.38027,15.40148 0.79991,2.08454 1.55362,1.83114 5.37728,-1.80771 2.44582,-2.32761 5.09188,-5.42165 5.88009,-6.87568 z m 95.79575,5.40977 c 0,-4.78341 -20.177,-19.4516 -26.80138,-19.48396 -3.1922,-0.0155 -8.11655,3.951 -8.11655,6.53799 0,0.95474 2.7825,2.8763 6.18337,4.27014 3.40087,1.39382 10.11167,4.40014 14.91287,6.68071 10.01354,4.75647 13.82169,5.30614 13.82169,1.99512 z m -55.70165,-5.82743 c 1.7723,-1.11698 4.1772,-2.03089 5.34429,-2.03089 1.16703,0 4.07356,-1.64218 6.45894,-3.64931 6.16981,-5.19159 4.85003,-8.81373 -3.36632,-9.23904 -5.30784,-0.27475 -7.18963,0.42963 -11.67949,4.37175 -11.61104,10.19464 -9.10933,18.33222 3.24258,10.54749 z m 332.55974,0.41006 c 4.39332,-6.70507 6.0035,-15.04276 4.11947,-21.33108 -2.44184,-8.15015 -6.01476,-9.71604 -10.70072,-4.68975 -6.05884,6.49885 -7.52652,10.31789 -5.05478,13.15282 1.16291,1.33374 2.93786,5.04391 3.9443,8.24471 2.9764,9.46587 4.08296,10.13097 7.69173,4.6233 z M 205.53509,339.34703 c 1.968,-7.08517 1.87125,-11.84555 -0.2407,-11.84555 -2.87385,0 -11.31075,6.36369 -12.23663,9.22975 -0.57089,1.76716 0.50704,4.11649 3.15874,6.88424 4.75224,4.96026 7.04718,3.909 9.31859,-4.26844 z m 21.74283,-1.06624 c 6.21591,-6.39572 7.44968,-8.39394 5.81965,-9.42558 -6.06128,-3.83632 -18.54079,0.9145 -22.93362,8.73054 -4.3987,7.82637 -4.05218,8.83094 3.04247,8.82056 5.58808,-0.009 6.94276,-0.79048 14.0715,-8.12552 z m 379.02512,-7.08144 c -1.92677,-2.94061 -2.88708,-3.39122 -4.45466,-2.09028 -2.87556,2.38651 -2.50532,3.87923 2.00265,8.07413 3.85218,3.58469 4.01789,3.61236 4.45466,0.74407 0.24951,-1.63854 -0.65168,-4.66613 -2.00265,-6.72792 z m -59.9807,1.97755 c 3.12031,-3.28012 5.46847,-7.04472 5.21814,-8.36577 -0.57325,-3.02508 -11.61467,-6.65132 -16.51079,-5.42247 -2.26512,0.56848 -4.582,2.88122 -6.12234,6.11137 l -2.47816,5.19674 4.72524,4.22203 c 2.59888,2.32207 5.79835,4.22197 7.10992,4.22197 1.3116,0 4.93768,-2.68375 8.05799,-5.96387 z m -446.22062,-8.48169 c 17.70661,-6.7466 38.56297,-23.03461 51.79848,-40.45265 3.50672,-4.61482 6.77907,-8.71794 7.2719,-9.11804 2.26978,-1.84253 12.8226,-23.70126 15.49828,-32.10248 9.42314,-29.5869 8.7215,-32.0098 -7.73575,-26.71353 -19.30056,6.21131 -35.75302,12.38871 -46.62487,17.50627 -12.66215,5.9603 -16.17931,10.75052 -22.537529,30.69537 -5.707467,17.90355 -12.150117,35.88857 -17.527395,48.92856 -2.29026,5.554 -4.164132,11.26961 -4.164132,12.70125 0,5.12515 8.048646,4.64105 24.021016,-1.44475 z m 495.46273,3.43828 c 1.5697,-1.89135 1.44212,-3.06372 -0.75207,-6.91082 -7.41317,-12.99754 -16.96401,-17.75479 -21.7958,-10.85645 -3.47838,4.96607 -2.70414,7.24715 4.33455,12.77051 9.09551,7.13738 15.07527,8.77788 18.21332,4.99676 z M 75.307235,293.54783 c 4.415447,-9.65312 15.880801,-44.21783 17.39642,-52.44509 0.900798,-4.88979 0.717254,-5.52666 -1.362842,-4.72846 -1.322135,0.50735 -3.539218,0.92246 -4.926846,0.92246 -1.919484,0 -3.494171,3.21892 -6.583468,13.45795 -5.953682,19.7324 -6.48379,21.6887 -7.391881,27.27966 -0.454924,2.80071 -1.151386,6.16318 -1.547644,7.47214 -0.396311,1.30897 -1.028235,4.90988 -1.404253,8.00204 -0.376007,3.09216 -1.067184,7.58623 -1.535956,9.98683 -0.820112,4.20011 -0.768911,4.25102 1.358012,1.34951 1.215642,-1.65837 3.914955,-6.74204 5.998458,-11.29704 z m 347.920595,1.49996 c 5.09278,-3.43204 7.33669,-3.99465 15.27661,-3.83026 5.11884,0.10592 11.84411,-0.27924 14.94508,-0.85603 4.46197,-0.82994 7.34522,-0.27473 13.82169,2.66159 15.86243,7.19175 17.61246,7.47407 20.13507,3.24815 2.21352,-3.70815 2.40973,-24.84121 0.29225,-31.47775 -2.80577,-8.79374 -7.65711,-17.5092 -13.17213,-23.66376 -4.47975,-4.99926 -5.82701,-5.75081 -7.9757,-4.44914 -1.42197,0.86143 -3.06473,3.35845 -3.65055,5.54895 -1.6514,6.17484 -4.07121,8.16143 -9.94114,8.16143 -4.38327,0 -5.7279,-0.70218 -7.09642,-3.70574 -0.92866,-2.03817 -1.70928,-5.14805 -1.73473,-6.91085 -0.0622,-4.30401 -3.28055,-8.29731 -6.68723,-8.29731 -4.55514,0 -13.2874,6.88397 -17.09403,13.47587 -3.9225,6.79255 -8.94566,22.12384 -10.36367,31.63118 -0.50134,3.36133 -1.54432,7.77588 -2.31772,9.81011 -1.23527,3.24899 0.0116,10.72402 2.53412,15.18343 0.64581,1.14203 4.54183,-0.81065 13.0285,-6.52987 z M 201.55688,282.84802 c 16.88583,-8.26932 26.11721,-13.59543 26.68957,-15.39869 0.84964,-2.67707 -3.30827,-8.8311 -7.95832,-11.77891 -1.10632,-0.70133 -6.05339,-4.70398 -10.99344,-8.89477 -9.2298,-7.82989 -13.98695,-10.93384 -16.75722,-10.93384 -2.71369,0 -9.52398,12.26792 -15.90496,28.65094 -3.36838,8.64819 -8.12898,19.5875 -10.57921,24.30958 l -4.45485,8.58559 7.07192,-0.949 c 4.51735,-0.6062 16.39695,-5.51564 32.88651,-13.5909 z m -100.24384,-35.72175 8.50085,-18.29085 10.21348,-1.02569 c 6.85238,-0.68816 11.07869,-1.89092 12.8427,-3.65493 1.44607,-1.44609 4.15471,-2.84564 6.01922,-3.11011 2.17838,-0.30901 3.3178,-1.39062 3.18796,-3.02628 -0.16453,-2.07195 0.99906,-2.5454 6.25561,-2.5454 6.63224,0 15.0427,-3.30022 15.0427,-5.90268 0,-2.61712 -4.23527,-3.18392 -14.21386,-1.90222 -8.4947,1.09112 -9.78153,1.64855 -9.71158,4.20694 0.0765,2.79548 -0.3914,2.87859 -8.97962,1.59511 -5.57727,-0.83351 -12.04044,-0.8352 -16.81219,-0.004 l -7.75187,1.34966 12.77666,3.58695 c 14.46887,4.06201 15.23842,5.72083 0.92507,1.99406 -5.13535,-1.3371 -13.3974,-2.71898 -18.36012,-3.07085 l -9.023129,-0.63978 -2.25244,5.39092 c -3.021167,7.23062 -2.936249,7.56402 2.214891,8.6954 2.894055,0.63563 4.205099,1.66476 3.722632,2.92211 -0.409649,1.06751 -1.188252,4.44257 -1.7302,7.50017 -1.179917,6.65703 -5.669962,23.83049 -9.24891,35.37539 -4.32507,13.95161 -1.052903,8.07059 16.382146,-29.44356 z m 159.08558,12.5546 c 3.80601,-1.29217 10.33408,-3.91102 14.50677,-5.81966 4.17269,-1.90863 8.02075,-3.47024 8.55127,-3.47024 0.53048,0 3.02764,-0.90434 5.54914,-2.00964 2.52154,-1.10532 7.74149,-3.23399 11.59979,-4.7304 l 7.01519,-2.72076 0.37607,-8.05715 c 0.23146,-4.95875 1.86981,-11.31989 4.26042,-16.54168 2.13639,-4.6665 3.88436,-9.36225 3.88436,-10.43502 0,-2.07018 -7.07964,-4.3829 -19.70905,-6.43839 -8.65308,-1.40833 -21.37,-5.22053 -35.97467,-10.78426 -15.95175,-6.07688 -22.75202,-5.36597 -43.02356,4.49786 -9.32714,4.53845 -19.44664,9.885 -22.48778,11.88123 -4.89186,3.21107 -5.47896,4.2208 -5.09221,8.75834 0.36737,4.31054 1.94597,6.38524 9.89409,13.00373 5.20133,4.33118 12.40316,10.62404 16.00404,13.98411 9.55097,8.91216 22.21918,19.25268 24.73354,20.18897 4.26495,1.58814 13.09151,1.00878 19.91259,-1.30704 z M 180.2541,205.86714 c 3.92016,-2.08241 7.54539,-4.4578 8.05607,-5.27859 0.51069,-0.82083 1.57882,-1.0905 2.37364,-0.59928 0.7948,0.49122 3.9779,-0.88781 7.07352,-3.0645 3.09562,-2.1767 12.10738,-7.2414 20.02614,-11.25487 16.46052,-8.34269 18.80848,-10.76002 14.77761,-15.21408 -3.52761,-3.89798 -6.56311,-3.78753 -10.21516,0.37171 -4.38532,4.99441 -18.21129,15.54718 -20.36948,15.54718 -1.0315,0 -5.68088,2.29149 -10.3319,5.0922 -4.65105,2.80072 -8.9666,5.0922 -9.5901,5.0922 -0.62351,0 -4.75396,1.65597 -9.17878,3.67993 -5.79048,2.6486 -8.0452,4.48348 -8.0452,6.54713 0,4.1437 6.63758,3.74822 15.42364,-0.91903 z m -34.33753,-1.50682 c 21.00012,-4.11455 59.9017,-23.53111 67.58822,-33.73462 3.7311,-4.95285 6.49153,-25.88909 6.56011,-49.7544 l 0.0523,-18.21868 -4.59225,-5.571224 -4.59231,-5.571231 -10.47016,0.528722 c -8.57057,0.432792 -11.49894,1.255771 -16.14025,4.536006 -10.55072,7.456627 -40.38543,37.532667 -49.39022,49.789647 -2.35152,3.20082 -4.67728,6.14702 -5.16829,6.54713 -2.52032,2.05359 -21.93816,32.85954 -27.34752,43.38619 l -6.220696,12.10551 19.404596,-0.95253 c 10.67255,-0.5239 24.31493,-1.91464 30.31644,-3.09052 z m 173.54033,-5.61883 c -0.17713,-0.80021 -2.45841,-2.60066 -5.06951,-4.00102 -2.72698,-1.46248 -3.71008,-2.5461 -2.30996,-2.5461 1.34065,0 2.84218,0.65471 3.33674,1.45491 0.49455,0.80021 2.48051,1.45492 4.41324,1.45492 3.76783,0 7.95353,-6.05869 7.95353,-11.51249 0,-4.69525 5.5636,-18.25064 10.00991,-24.38858 6.00455,-8.28905 7.00828,-10.51974 10.35788,-23.0192 1.86706,-6.96718 5.12054,-14.37749 8.43146,-19.20395 9.51178,-13.86577 9.90911,-14.71751 8.17459,-17.52389 -2.34018,-3.786346 -26.39316,-15.354145 -37.11412,-17.849308 -12.23194,-2.846818 -48.68641,-2.905865 -58.78375,-0.09521 -4.00102,1.113704 -10.29116,3.521758 -13.97802,5.351238 -17.71108,8.788429 -21.03175,16.32523 -19.75221,44.83028 0.46995,10.4699 1.1969,21.27952 1.61537,24.02133 0.98887,6.47875 8.08834,13.72817 15.83484,16.16931 3.35257,1.05648 6.7503,2.39282 7.55053,2.96964 0.80018,0.57682 10.9482,4.11936 22.55114,7.87233 27.24626,8.81276 28.35059,9.27527 20.00512,8.37818 -11.28536,-1.21308 -8.25837,4.16648 4.31705,7.67233 7.78682,2.17085 12.94115,2.15648 12.45617,-0.0347 z m -26.74563,-4.96765 c 4.06683,-2.57511 0.17008,-5.46261 -13.87608,-10.28223 -7.88868,-2.70682 -17.75395,-6.4191 -21.92282,-8.24954 -4.16886,-1.83043 -7.93623,-2.75131 -8.37187,-2.04641 -1.06724,1.72683 11.0579,12.25092 17.80611,15.45493 10.96132,5.20438 22.64954,7.47566 26.36466,5.12325 z m -41.53189,-14.35839 c -1.7206,-1.37372 -5.32859,-4.20112 -8.0178,-6.2831 -4.05654,-3.14058 -5.21407,-5.37114 -6.79518,-13.09423 -1.04816,-5.11985 -2.62376,-12.5824 -3.5014,-16.58341 l -1.59571,-7.27457 -1.8731,4.36474 c -1.03024,2.40061 -1.90264,5.94697 -1.93878,7.8808 -0.0359,1.93381 -0.48583,3.09578 -0.99952,2.58212 -0.51363,-0.51363 -0.18627,-4.87839 0.72746,-9.69942 0.91377,-4.82104 2.39903,-12.85748 3.3006,-17.85874 0.90162,-5.00128 2.86575,-13.82786 4.36476,-19.61462 3.74388,-14.452588 3.66896,-14.939621 -2.29823,-14.939621 -7.10735,0 -12.44038,2.757607 -12.40998,6.416928 0.0145,1.672011 1.02282,7.623003 2.24201,13.224423 1.8382,8.44516 1.94027,12.66905 0.59784,24.73356 -0.89038,8.00203 -2.22668,17.29424 -2.96947,20.64934 -2.73039,12.33271 -0.3519,18.39232 2.85992,7.28615 1.33107,-4.60262 1.34827,-4.61026 1.47798,-0.65583 0.0854,2.60438 0.92597,4.00101 2.40803,4.00101 1.25225,0 5.42667,3.23379 9.27641,7.18619 3.85002,3.95265 9.20846,7.82159 11.90858,8.59828 6.71454,1.93143 6.78272,1.91206 3.23558,-0.92 z M 388.30692,176.85 c 1.08373,-4.31794 0.14967,-5.72877 -2.9941,-4.52238 -2.92274,1.12156 -3.00087,8.22742 -0.0905,8.22742 1.18506,0 2.57311,-1.66726 3.08455,-3.70504 z m 9.34595,-7.30152 c 1.82509,-4.80035 1.80199,-4.9975 -0.58533,-4.9975 -2.87407,0 -5.74356,3.94286 -4.75132,6.5286 1.28333,3.34427 3.75235,2.63588 5.33665,-1.5311 z m -9.01764,-5.79383 c 4.95985,-1.98453 13.08486,-10.13456 11.59188,-11.62755 -0.30571,-0.30569 -4.28018,0.81614 -8.83215,2.49297 -7.47925,2.75514 -8.93459,2.86447 -15.11151,1.13504 -4.34379,-1.2162 -8.90492,-3.98348 -12.51349,-7.59204 -3.12307,-3.12307 -5.9728,-5.38379 -6.33276,-5.02382 -0.35996,0.35993 -0.2146,3.40526 0.32302,6.76733 1.97038,12.32206 17.39663,19.24105 30.87501,13.84807 z m 15.35261,-5.30831 c -1.31191,-2.12271 -4.82978,1.72678 -3.86814,4.23277 0.76904,2.00411 1.10517,1.96528 2.77673,-0.32072 1.04598,-1.43045 1.53712,-3.19088 1.09141,-3.91205 z m 121.26425,-6.56188 c 2.64766,-4.04085 3.73773,-20.85087 1.49738,-23.09122 -0.59525,-0.59524 -2.45352,0.1587 -4.12949,1.67543 l -3.04724,2.75771 2.54696,-4.43783 c 2.50561,-4.36576 2.47816,-4.56621 -1.69015,-12.34481 -4.32172,-8.0648 -8.21144,-10.22398 -9.00233,-4.99716 -1.57478,10.40731 -1.75555,10.36487 -7.67597,-1.80187 -6.70214,-13.773187 -15.48808,-22.473374 -25.00827,-24.764205 -16.90277,-4.067287 -20.54643,-4.714593 -26.53833,-4.714593 -9.94408,0 -15.97518,3.680433 -22.50029,13.730663 -3.1497,4.851284 -6.42836,10.457295 -7.28591,12.457805 -0.85754,2.00051 -2.84714,5.7651 -4.42134,8.36577 -1.57419,2.60065 -2.46794,4.72847 -1.98611,4.72847 0.48182,0 0.22033,0.81838 -0.58112,1.81864 -1.57967,1.97157 -10.53845,27.68754 -10.53845,30.25041 0,3.23231 2.9722,-0.48077 7.95358,-9.93615 2.8298,-5.37137 6.84934,-11.73026 8.93234,-14.13087 3.61117,-4.16183 3.6787,-4.18111 1.4527,-0.41492 -4.1686,7.05284 -2.5221,5.75605 8.6853,-6.84058 6.06093,-6.81222 11.32166,-12.38585 11.69052,-12.38585 1.25846,0 -2.06493,5.11831 -5.11665,7.88007 -1.67452,1.51542 -3.04458,3.32791 -3.04458,4.02774 0,0.69984 5.01024,-3.00256 11.13388,-8.22752 13.96096,-11.912148 18.29433,-12.539679 25.41393,-3.68029 2.57224,3.2008 5.33794,5.81966 6.14599,5.81966 0.80805,0 3.15365,-1.97407 5.21243,-4.38683 l 3.74325,-4.38682 4.7656,3.79388 c 2.62109,2.08662 7.39214,7.66161 10.60234,12.38885 3.21022,4.72724 6.40563,8.59498 7.10092,8.59498 0.69531,0 1.71442,3.27355 2.26469,7.27458 1.05011,7.63522 2.9965,9.55075 4.06542,4.00101 0.34678,-1.80046 0.71967,0.38192 0.82865,4.84972 0.10897,4.46781 0.6346,8.55975 1.16808,9.09321 1.99957,1.9996 4.86451,0.84499 7.36227,-2.96708 z m -3.69468,-13.61288 c 0.3501,-1.05027 1.49583,-2.19601 2.5461,-2.5461 1.09119,-0.36374 1.63678,0.18186 1.27305,1.27305 -0.35009,1.05026 -1.49584,2.19601 -2.5461,2.5461 -1.09119,0.36373 -1.63678,-0.18186 -1.27305,-1.27305 z m -11.79725,-13.852 c 0.0699,-1.6949 0.41456,-2.03965 0.879,-0.87901 0.42028,1.05026 0.3686,2.30513 -0.11479,2.78858 -0.48345,0.48346 -0.82733,-0.37585 -0.76416,-1.90957 z m -119.90943,24.79347 c 5.93626,-3.47889 6.31121,-4.08094 6.31121,-10.13379 0,-5.08065 -0.92202,-7.48528 -4.38044,-11.4242 -2.40925,-2.74398 -6.03529,-5.40438 -8.0579,-5.91203 -5.13996,-1.29004 -12.4892,2.56221 -18.02135,9.44623 l -4.62774,5.7586 3.19062,4.70835 c 7.98085,11.77717 14.89799,13.82019 25.5856,7.55684 z M 370.9946,135.98884 c -1.65783,-1.65783 1.92691,-6.35582 4.84971,-6.35582 3.67464,0 3.70402,3.80995 0.0445,5.76848 -3.29341,1.76258 -3.67334,1.80817 -4.89417,0.58734 z m 35.41464,-1.77855 c 2.25302,-12.6071 0.0239,-23.62825 -5.99686,-29.64898 -3.23844,-3.23842 -5.34419,-4.02659 -10.75789,-4.02659 -8.29088,0 -12.84764,2.3072 -20.60228,10.43144 -7.05729,7.39366 -8.94401,10.73949 -10.07736,17.87076 l -0.83491,5.25356 8.53426,-8.77585 c 7.97797,-8.20384 8.96724,-8.77585 15.17749,-8.77585 12.15312,0 17.14318,7.36091 17.26036,25.46102 l 0.0564,8.72949 2.72885,-3.271 c 1.50086,-1.79905 3.53117,-7.76064 4.51182,-13.248 z m 87.72014,-15.73479 c 1.29405,-1.29405 -3.31952,-6.30146 -5.80585,-6.30146 -2.41973,0 -2.44446,0.71365 -0.15197,4.38449 1.82951,2.92954 4.18678,3.688 5.95782,1.91697 z m -22.31187,-1.65863 c 0,-0.64727 -0.938,-2.44773 -2.08442,-4.00102 -1.60821,-2.17894 -2.48336,-2.43102 -3.83049,-1.10333 -2.4308,2.39573 -0.60014,6.28118 2.95942,6.28118 1.62552,0 2.95549,-0.52957 2.95549,-1.17683 z m -54.35608,-11.99251 c 1.06424,-3.55961 1.94492,-7.989234 1.95706,-9.843614 0.0184,-2.819279 -0.51418,-3.211554 -3.25147,-2.394607 -9.65163,2.880529 -10.93904,6.026734 -6.20898,15.173671 3.05914,5.9157 5.09527,5.11913 7.50339,-2.93545 z"
     id="path5352"
     inkscape:connector-curvature="0"
     inkscape:export-filename="/home/warturtle/path5352.png"
     inkscape:export-xdpi="95.599998"
     inkscape:export-ydpi="95.599998"
     clip-path="none" />
  <ellipse
     style="opacity:0.98000004;fill:none;fill-opacity:1;stroke:#000000;stroke-width:1.53299999;stroke-miterlimit:4;stroke-dasharray:none;stroke-opacity:0.94871796"
     id="path818"
     cx="384.23547"
     cy="343.90735"
     rx="340.60757"
     ry="334.63699"
     clip-path="none" />
  <rect
     style="opacity:0.98000004;fill:#000000;fill-opacity:1;stroke:#000000;stroke-width:1.53299999;stroke-miterlimit:4;stroke-dasharray:none;stroke-opacity:0.94871796"
     id="rect828"
     width="860.65906"
     height="120.96821"
     x="-55.52639"
     y="629.97607" />
</svg>
