<?xml version="1.0" encoding="UTF-8" standalone="no"?>
<!-- Created with Inkscape (http://www.inkscape.org/) -->

<svg
   xmlns:dc="http://purl.org/dc/elements/1.1/"
   xmlns:cc="http://creativecommons.org/ns#"
   xmlns:rdf="http://www.w3.org/1999/02/22-rdf-syntax-ns#"
   xmlns:svg="http://www.w3.org/2000/svg"
   xmlns="http://www.w3.org/2000/svg"
   xmlns:sodipodi="http://sodipodi.sourceforge.net/DTD/sodipodi-0.dtd"
   xmlns:inkscape="http://www.inkscape.org/namespaces/inkscape"
   version="1.1"
   id="svg5235"
   width="709.33331"
   height="705.33331"
   viewBox="0 0 709.33331 705.33331"
   sodipodi:docname="default-iconzy.svg"
   inkscape:version="0.92.3 (2405546, 2018-03-11)"
   inkscape:export-filename="/home/warturtle/Projects/website/official/assets/default-iconz.svg.png"
   inkscape:export-xdpi="95.599998"
   inkscape:export-ydpi="95.599998">
  <metadata
     id="metadata5241">
    <rdf:RDF>
      <cc:Work
         rdf:about="">
        <dc:format>image/svg+xml</dc:format>
        <dc:type
           rdf:resource="http://purl.org/dc/dcmitype/StillImage" />
        <dc:title></dc:title>
      </cc:Work>
    </rdf:RDF>
  </metadata>
  <defs
     id="defs5239">
    <clipPath
       clipPathUnits="userSpaceOnUse"
       id="clipPath993">
      <rect
         style="opacity:0.98000004;fill:none;fill-opacity:1;stroke:#000000;stroke-width:1.53299999;stroke-miterlimit:4;stroke-dasharray:none;stroke-opacity:0.94871796"
         id="rect995"
         width="322.38019"
         height="322.38019"
         x="273.21591"
         y="73.431122" />
    </clipPath>
    <clipPath
       clipPathUnits="userSpaceOnUse"
       id="clipPath997">
      <rect
         style="opacity:0.98000004;fill:none;fill-opacity:1;stroke:#000000;stroke-width:1.53299999;stroke-miterlimit:4;stroke-dasharray:none;stroke-opacity:0.94871796"
         id="rect999"
         width="322.38019"
         height="322.38019"
         x="273.21591"
         y="73.431122" />
    </clipPath>
    <clipPath
       clipPathUnits="userSpaceOnUse"
       id="clipPath1001">
      <rect
         style="opacity:0.98000004;fill:none;fill-opacity:1;stroke:#000000;stroke-width:1.53299999;stroke-miterlimit:4;stroke-dasharray:none;stroke-opacity:0.94871796"
         id="rect1003"
         width="322.38019"
         height="322.38019"
         x="273.21591"
         y="73.431122" />
    </clipPath>
    <clipPath
       clipPathUnits="userSpaceOnUse"
       id="clipPath1005">
      <rect
         style="opacity:0.98000004;fill:none;fill-opacity:1;stroke:#000000;stroke-width:1.53299999;stroke-miterlimit:4;stroke-dasharray:none;stroke-opacity:0.94871796"
         id="rect1007"
         width="322.38019"
         height="322.38019"
         x="273.21591"
         y="73.431122" />
    </clipPath>
    <clipPath
       clipPathUnits="userSpaceOnUse"
       id="clipPath1009">
      <rect
         style="opacity:0.98000004;fill:none;fill-opacity:1;stroke:#000000;stroke-width:1.53299999;stroke-miterlimit:4;stroke-dasharray:none;stroke-opacity:0.94871796"
         id="rect1011"
         width="322.38019"
         height="322.38019"
         x="273.21591"
         y="73.431122" />
    </clipPath>
    <clipPath
       clipPathUnits="userSpaceOnUse"
       id="clipPath1013">
      <rect
         style="opacity:0.98000004;fill:none;fill-opacity:1;stroke:#000000;stroke-width:1.53299999;stroke-miterlimit:4;stroke-dasharray:none;stroke-opacity:0.94871796"
         id="rect1015"
         width="322.38019"
         height="322.38019"
         x="273.21591"
         y="73.431122" />
    </clipPath>
    <clipPath
       clipPathUnits="userSpaceOnUse"
       id="clipPath1017">
      <rect
         style="opacity:0.98000004;fill:none;fill-opacity:1;stroke:#000000;stroke-width:1.53299999;stroke-miterlimit:4;stroke-dasharray:none;stroke-opacity:0.94871796"
         id="rect1019"
         width="322.38019"
         height="322.38019"
         x="273.21591"
         y="73.431122" />
    </clipPath>
    <clipPath
       clipPathUnits="userSpaceOnUse"
       id="clipPath1021">
      <rect
         style="opacity:0.98000004;fill:none;fill-opacity:1;stroke:#000000;stroke-width:1.53299999;stroke-miterlimit:4;stroke-dasharray:none;stroke-opacity:0.94871796"
         id="rect1023"
         width="322.38019"
         height="322.38019"
         x="273.21591"
         y="73.431122" />
    </clipPath>
  </defs>
  <sodipodi:namedview
     pagecolor="#ffffff"
     bordercolor="#666666"
     borderopacity="1"
     objecttolerance="10"
     gridtolerance="10"
     guidetolerance="10"
     inkscape:pageopacity="0"
     inkscape:pageshadow="2"
     inkscape:window-width="1366"
     inkscape:window-height="684"
     id="namedview5237"
     showgrid="false"
     inkscape:zoom="0.71313802"
     inkscape:cx="224.13793"
     inkscape:cy="351.23741"
     inkscape:window-x="0"
     inkscape:window-y="28"
     inkscape:window-maximized="1"
     inkscape:current-layer="svg5235" />
  <g
     id="g1033">
    <rect
       clip-path="url(#clipPath1021)"
       y="-2.7642436"
       x="3.3349302"
       height="707.08868"
       width="727.4574"
       id="rect5354"
       style="opacity:0.98000004;fill:#000000;fill-opacity:1;stroke:#000000;stroke-width:3.02399993;stroke-miterlimit:4;stroke-dasharray:none;stroke-opacity:0.94871796" />
    <path
       clip-path="url(#clipPath1017)"
       inkscape:connector-curvature="0"
       id="path913"
       d="m 418.95642,366.14376 c -6.9637,-4.37496 -16.21272,-11.39199 -20.13465,-15.27571 -4.19617,-4.15529 -6.85951,-8.04881 -11.67895,-17.07337 -3.74707,-7.01652 -5.44252,-9.43243 -5.44252,-7.75524 0,1.36669 2.28367,6.82948 5.80287,13.88112 1.7495,3.50557 3.11166,6.43981 3.02701,6.52052 -0.0846,0.0807 -1.80245,-1.73384 -3.81737,-4.03234 -2.01491,-2.2985 -3.74961,-4.09297 -3.85487,-3.98771 -0.31815,0.31815 3.24622,6.35019 5.42347,9.17821 1.12198,1.45734 3.78416,4.22464 5.91595,6.14953 2.1318,1.9249 3.77408,3.60173 3.64952,3.72629 -0.6214,0.6214 -12.16228,-2.63699 -15.55103,-4.39059 -9.36976,-4.84864 -19.48852,-14.7856 -22.20626,-21.8073 -1.37764,-3.55934 -3.04928,-5.49738 -4.58813,-5.31929 -0.88109,0.10196 -1.36418,0.48553 -1.46074,1.15981 -0.18063,1.2614 4.32063,8.48472 8.90092,14.28359 1.90455,2.41125 3.34491,4.50201 3.20079,4.64612 -0.41325,0.41325 -4.36947,-2.07388 -8.58745,-5.39861 -8.82999,-6.96006 -13.913,-13.4368 -21.14822,-26.94691 -5.3613,-10.011 -6.73592,-12.32413 -7.10472,-11.95533 -0.16239,0.16239 0.20233,1.76836 0.81049,3.56882 0.60817,1.80046 1.00736,3.37196 0.88709,3.49223 -0.66522,0.66522 -5.91495,-9.03194 -9.68895,-17.89714 -9.82491,-23.07892 -11.70374,-37.81301 -7.23854,-56.76582 2.97004,-12.60649 5.85658,-20.27534 15.28781,-40.61603 3.35986,-7.24634 6.83215,-14.84839 7.71621,-16.89345 1.71589,-3.96927 2.74318,-5.45348 3.77462,-5.45348 0.9102,0 2.76307,-2.61927 4.90991,-6.9408 1.01594,-2.04506 2.86143,-5.14782 4.10108,-6.89502 l 2.25392,-3.17674 2.84829,5.68074 c 3.65004,7.27975 4.95038,8.46636 12.63085,11.52604 9.66141,3.84882 10.73423,4.69159 10.73423,8.43235 0,6.46481 -18.22037,37.68231 -23.21058,39.76735 -5.00845,2.09266 -9.5179,-5.3824 -14.83342,-24.58853 -1.84414,-6.6633 -2.32133,-7.08932 -1.95296,-1.74357 0.36936,5.36027 1.87181,13.16386 3.237,16.81264 2.08232,5.5655 9.4869,14.17307 12.19224,14.17307 1.57029,0 4.26818,-2.7964 10.15446,-10.52524 5.05177,-6.63311 7.76221,-9.80138 8.38502,-9.80138 0.22031,0 -0.0404,1.25448 -0.57926,2.78774 -1.24958,3.5553 -1.88798,12.55362 -1.40259,19.76985 0.40167,5.97163 0.97056,8.51411 2.49598,11.15486 0.86971,1.50561 0.96734,1.56408 0.73794,0.44196 -1.47352,-7.20773 -2.12446,-19.23159 -1.26134,-23.29882 0.73886,-3.48165 8.21101,-19.06166 11.38005,-23.72828 2.88342,-4.24602 5.20298,-5.13421 7.37378,-2.8235 3.05098,3.24763 2.73297,9.01813 -1.70723,30.97798 -2.53809,12.55266 -4.10223,18.33528 -5.96524,22.05349 -2.35539,4.70088 -3.46029,5.24424 -6.11745,3.00839 -0.85046,-0.71561 -1.64093,-1.20647 -1.75662,-1.09079 -0.23687,0.23688 3.67543,8.69712 4.81667,10.41594 l 0.73959,1.11388 0.56149,-1.04914 c 0.30882,-0.57703 1.78917,-4.50103 3.28969,-8.71999 3.41665,-9.60656 5.82246,-14.91827 6.08273,-13.4299 0.10194,0.58295 -0.50029,3.97562 -1.3383,7.53927 -2.4296,10.33199 -3.06408,16.02657 -3.07427,27.59213 -0.01,10.95546 0.78328,19.78619 2.5591,28.50032 2.19948,10.79301 9.21768,31.84445 13.66731,40.99579 1.48196,3.04789 2.69448,5.81972 2.69448,6.15963 0,1.16358 -2.5771,-1.78002 -5.7153,-6.52807 -4.57331,-6.91939 -6.23503,-7.96909 -4.03179,-2.54686 2.58534,6.36256 11.63469,18.20523 22.32803,29.22018 3.51108,3.61669 6.16596,6.57579 5.89972,6.57579 -0.26624,0 -2.52594,-1.2828 -5.02156,-2.85068 z"
       style="opacity:0.98000004;fill:#a6b25c;fill-opacity:0.98039216;stroke:#000000;stroke-width:1.53299999;stroke-miterlimit:4;stroke-dasharray:none;stroke-opacity:0.94871796" />
    <path
       clip-path="url(#clipPath1013)"
       inkscape:connector-curvature="0"
       id="path915"
       d="m 463.54248,383.13478 c -12.47176,-3.29292 -28.96721,-13.70138 -40.15097,-25.33485 -13.35738,-13.89451 -21.82827,-31.96391 -28.21998,-60.19656 -2.14709,-9.48381 -2.57091,-14.08425 -2.9003,-31.48148 -0.37001,-19.5429 0.15125,-26.30395 2.84226,-36.86584 2.82239,-11.0775 6.56007,-21.79404 9.74161,-27.93075 6.19238,-11.94416 22.63798,-30.5378 28.25733,-31.94817 1.93977,-0.48685 4.67064,0.59652 9.39975,3.72902 6.55278,4.34047 12.90037,9.88716 26.26036,22.94703 6.63457,6.48553 12.60414,11.92773 13.26569,12.09377 1.44922,0.36373 2.51796,-0.1681 5.46714,-2.7206 3.00504,-2.60085 10.01014,-6.90455 18.05507,-11.09244 6.01526,-3.13132 6.81239,-3.41824 8.85657,-3.18784 5.32193,0.59986 7.76921,4.71237 9.36135,15.73115 0.90956,6.29486 1.14624,7.08213 1.71399,5.70137 1.33012,-3.23479 0.15598,-10.52138 -3.53383,-21.93057 -4.36716,-13.50365 -6.33493,-17.29812 -5.64901,-10.89303 0.3324,3.10384 -0.30261,6.95577 -1.24243,7.53661 -0.2555,0.1579 -1.03308,-0.61352 -1.72795,-1.71427 -2.25814,-3.57711 -4.9894,-2.74568 -14.63067,4.45374 -12.00926,8.96766 -15.37375,10.9343 -16.75208,9.79206 -0.41837,-0.3467 -3.45589,-4.08837 -6.75006,-8.31482 -10.38905,-13.32925 -20.37965,-22.35466 -32.23072,-29.11694 -2.9846,-1.70303 -5.85304,-3.23178 -6.37431,-3.39723 -2.30344,-0.73108 -15.64477,9.87317 -20.42944,16.23819 -6.00973,7.9947 -13.80433,22.78872 -18.0864,34.32768 -1.40767,3.79327 -2.85818,7.32343 -3.22337,7.84481 -2.5096,3.58296 -0.99003,-8.43625 3.23809,-25.61194 1.90736,-7.74816 2.37191,-11.19154 1.50987,-11.19154 -0.23859,0 -0.57648,0.7134 -0.75087,1.58534 -0.35349,1.76742 -1.57716,3.86814 -2.25319,3.86814 -1.24555,0 3.13499,-12.33667 7.37076,-20.75787 7.17308,-14.26092 22.67936,-33.02965 36.41946,-44.08194 4.659,-3.74761 8.0749,-5.55972 10.48031,-5.55972 2.3166,0 3.41976,0.59713 6.42892,3.47989 3.41605,3.27257 7.98765,6.35448 9.98062,6.72836 2.39468,0.44925 3.49214,0.0382 7.26442,-2.72121 1.8499,-1.35316 4.33525,-2.83143 5.52301,-3.28504 2.5344,-0.9679 3.29203,-0.70117 6.6102,2.32712 2.80989,2.56442 3.84582,2.89054 9.18186,2.89054 h 4.53524 l 2.64361,2.79557 c 3.17067,3.35294 6.55828,10.04395 7.99732,15.79585 0.54575,2.18139 1.57574,7.20108 2.28888,11.15486 1.88877,10.47188 2.61847,12.89005 3.88963,12.89005 0.64928,0 2.35254,1.4056 4.56867,3.77023 l 3.53344,3.77022 1.4548,-0.7523 c 2.2815,-1.17981 6.13342,-5.56688 6.13342,-6.98554 0,-2.69825 -1.76648,-2.15604 -3.47039,1.06521 -1.46994,2.7789 -3.0985,3.57569 -5.20234,2.54529 -2.5289,-1.23858 -3.47569,-3.10061 -3.45643,-6.79768 0.0199,-3.81186 0.90307,-5.99785 2.7884,-6.90146 0.72011,-0.34514 1.98353,-1.68576 2.8076,-2.97915 1.45545,-2.28434 3.55854,-7.7577 3.55854,-9.26122 0,-1.16366 1.49137,-0.33059 2.06215,1.15191 0.27438,0.71266 0.6948,4.02561 0.93426,7.3621 0.36977,5.15209 0.68015,6.64644 2.05951,9.91542 l 1.62413,3.84909 -0.0275,9.66754 c -0.0307,10.81814 -0.64961,15.49603 -3.44565,26.04577 -0.94208,3.55456 -2.49101,9.87968 -3.44208,14.05584 -1.0047,4.41166 -2.19883,8.3509 -2.85005,9.40187 -1.05594,1.70413 -1.12107,2.33021 -1.12484,10.81442 -0.003,8.05412 0.22301,10.26775 0.97416,9.51661 0.56305,-0.56306 1.78816,-7.95457 2.75157,-16.60129 1.35435,-12.1553 2.18703,-15.84627 3.97925,-17.63849 1.61649,-1.61649 2.76023,-1.7742 3.18399,-0.43904 0.38968,1.22773 -0.55151,8.97717 -1.49048,12.27225 -0.40132,1.40835 -1.28808,6.20494 -1.97056,10.65909 -2.96561,19.35467 -8.96801,43.8355 -11.40936,46.53315 -1.35983,1.50259 -2.32734,4.7352 -3.76973,12.59518 -2.69999,14.71307 -6.74131,29.26971 -10.92004,39.33347 -3.71878,8.95603 -8.37206,17.37917 -8.34848,15.11199 0.009,-0.84737 1.99533,-8.30295 4.12935,-15.49788 7.88535,-26.58571 14.77924,-64.74872 16.72534,-92.58755 0.72941,-10.4342 0.33499,-28.01467 -0.74654,-33.27555 -1.36473,-6.63855 -3.48139,-9.47745 -7.06626,-9.47745 -2.42524,0 -6.21582,2.38651 -12.31344,7.75244 -7.4401,6.5473 -12.4764,10.35925 -15.3883,11.64733 l -2.26133,1.00029 -2.71144,-2.09187 c -1.4913,-1.15052 -8.2884,-7.51899 -15.10467,-14.15215 -6.81628,-6.63316 -13.335,-12.70052 -14.48606,-13.48301 -3.96787,-2.69742 -6.53605,-3.0998 -11.53226,-1.80689 -13.06538,3.38103 -26.1266,23.08634 -32.68287,49.30826 -4.69468,18.77645 -6.28177,56.3068 -2.94562,69.65587 5.26087,21.05055 21.60214,46.06532 38.3088,58.64205 9.80252,7.37931 24.53965,12.31404 32.94707,11.03231 7.0703,-1.07787 11.38828,-4.25647 17.1849,-12.6503 3.65516,-5.29288 4.30561,-6.04047 4.8136,-5.53248 1.08265,1.08265 -4.88796,14.30951 -9.28668,20.57305 -2.1452,3.05467 -3.0054,3.8468 -5.35867,4.93469 -4.13195,1.91015 -10.96313,2.04837 -17.38861,0.35186 z m 61.83749,-123.08609 c -0.16959,-2.04908 -1.05098,-2.52569 -1.30856,-0.7076 -0.20241,1.42861 0.20606,2.56675 0.92117,2.56675 0.3223,0 0.47901,-0.75211 0.38739,-1.85915 z m 1.08556,-6.53492 c 0,-1.62805 -1.1287,-3.28883 -1.90788,-2.80727 -0.74677,0.46153 -0.73779,3.89542 0.0122,4.64536 0.84101,0.84101 1.89572,-0.18163 1.89572,-1.83809 z"
       style="opacity:0.98000004;fill:#a6b25c;fill-opacity:0.98039216;stroke:#000000;stroke-width:1.53299999;stroke-miterlimit:4;stroke-dasharray:none;stroke-opacity:0.94871796" />
    <path
       clip-path="url(#clipPath1009)"
       inkscape:connector-curvature="0"
       id="path917"
       d="m 409.7641,300.18419 c -2.11752,-4.09483 -2.86571,-11.21775 -1.56543,-14.90313 0.39505,-1.11968 1.2889,-5.02515 1.98633,-8.67883 2.28443,-11.96744 6.58927,-24.92461 10.49479,-31.58838 3.27145,-5.58187 11.20239,-12.36277 15.37505,-13.14557 4.0408,-0.75806 6.83228,2.14463 7.89019,8.2045 0.92072,5.27402 2.45483,8.79208 4.23548,9.71289 1.76793,0.91423 7.39017,0.93969 9.53582,0.0432 2.25563,-0.94247 4.15354,-3.38088 5.06096,-6.50228 0.89702,-3.08565 3.32468,-6.67716 4.57061,-6.76181 1.79474,-0.12195 2.41638,0.19775 4.7682,2.45221 4.02008,3.85364 8.16692,9.8649 11.50536,16.67813 4.64535,9.48042 4.90786,10.76599 4.91313,24.0605 0.005,12.73306 -0.29384,15.2593 -2.05275,17.34965 -2.17141,2.58056 -4.81605,2.07777 -16.59321,-3.15464 -8.72859,-3.87798 -11.49163,-4.52632 -16.25559,-3.81434 -2.0703,0.30941 -7.77993,0.68067 -12.68807,0.82501 -4.90813,0.14434 -9.98586,0.49362 -11.28383,0.77618 -1.32608,0.28868 -4.25818,1.71895 -6.69291,3.2648 -7.28563,4.62575 -10.72241,6.56728 -11.625,6.56728 -0.4745,0 -1.18511,-0.62341 -1.57913,-1.38535 z"
       style="opacity:0.98000004;fill:#a6b25c;fill-opacity:0.98039216;stroke:#000000;stroke-width:1.53299999;stroke-miterlimit:4;stroke-dasharray:none;stroke-opacity:0.94871796" />
    <path
       clip-path="url(#clipPath1005)"
       inkscape:connector-curvature="0"
       id="path921"
       d="m 518.58313,154.95665 c -0.96319,-0.78416 -1.12938,-1.60182 -1.53892,-7.57199 -0.25251,-3.68111 -0.46699,-6.87341 -0.47661,-7.09401 -0.0351,-0.80437 -1.00904,0.23734 -1.00904,1.07925 0,0.47714 -0.30528,1.28502 -0.6784,1.79529 -0.65446,0.89503 -0.69934,0.88863 -1.27198,-0.18137 -0.32648,-0.61002 -1.01489,-3.28244 -1.52981,-5.93871 -1.17749,-6.07429 -1.27426,-6.31342 -3.42524,-8.46439 -0.97656,-0.97657 -3.21036,-3.78232 -4.964,-6.23502 -4.95196,-6.92597 -9.32502,-11.93225 -13.0567,-14.94731 l -3.4172,-2.76097 -4.04793,4.27357 c -2.22637,2.35047 -4.33465,4.27174 -4.68509,4.26951 -1.20474,-0.008 -2.99162,-1.55017 -6.10969,-5.27408 -7.26908,-8.681432 -11.36613,-8.353397 -24.02524,1.92361 -8.41361,6.8304 -11.7391,9.33818 -12.01594,9.06134 -0.12711,-0.1271 1.02097,-1.58348 2.55127,-3.2364 2.95699,-3.19389 5.61579,-7.27059 5.08683,-7.79955 -0.45973,-0.45974 -3.73834,2.84476 -13.29598,13.40097 -4.6408,5.12567 -8.54679,9.21043 -8.67997,9.07725 -0.13318,-0.13319 0.47504,-1.49566 1.3516,-3.02772 0.87656,-1.53207 1.48468,-2.89464 1.35138,-3.02793 -0.29535,-0.29536 -4.10269,4.17926 -6.16202,7.24198 -0.82504,1.22704 -3.45853,5.68898 -5.85221,9.91543 -4.45934,7.87375 -6.47383,10.90697 -7.24376,10.90697 -0.78508,0 -0.4741,-1.32781 2.34598,-10.01688 3.14709,-9.69667 7.45784,-21.05285 8.15514,-21.48381 0.25558,-0.15796 0.46738,-0.88754 0.47066,-1.62131 0.003,-0.73376 0.59142,-2.33805 1.30697,-3.56508 0.71555,-1.22703 2.62417,-4.79659 4.24139,-7.93234 1.61722,-3.13575 4.25642,-7.820794 5.8649,-10.411199 7.84401,-12.632551 12.80061,-16.232482 23.03688,-16.731465 5.85453,-0.285388 9.4294,0.210132 21.07028,2.9206 9.57513,2.229479 12.41031,3.359078 16.89804,6.732567 5.41532,4.070767 9.54898,9.690211 15.34622,20.862197 3.76664,7.25879 5.05978,8.92368 5.89327,7.58749 0.23688,-0.37974 0.77992,-2.59238 1.20675,-4.91698 1.06145,-5.78071 1.83756,-6.22964 5.02277,-2.90537 2.38991,2.49425 7.19317,11.51543 7.19317,13.50977 0,0.7499 -0.89815,2.99994 -1.9959,5.00009 -1.09775,2.00015 -1.85705,3.63664 -1.68733,3.63664 0.16971,0 1.32237,-0.89239 2.56147,-1.98309 2.54056,-2.23629 4.34,-2.56705 4.8706,-0.89527 0.18989,0.5983 0.33031,3.58793 0.31205,6.64363 -0.0543,9.08738 -1.41461,14.42025 -4.36827,17.12537 -1.98393,1.81699 -3.29763,2.11932 -4.60039,1.05872 z m 5.58457,-16.03609 c 1.50344,-1.18261 1.81202,-3.43442 0.47064,-3.43442 -1.24537,0 -3.13053,1.99259 -3.13053,3.30894 0,1.42957 0.94531,1.47417 2.65989,0.12548 z m -13.24994,-13.10307 c 0.37412,-0.97493 -0.1992,-3.2214 -0.82213,-3.2214 -0.26748,0 -0.48633,0.89239 -0.48633,1.98308 0,1.96205 0.75613,2.67765 1.30846,1.23832 z"
       style="opacity:0.98000004;fill:#a6b25c;fill-opacity:0.98039216;stroke:#000000;stroke-width:1.53299999;stroke-miterlimit:4;stroke-dasharray:none;stroke-opacity:0.94871796" />
    <path
       clip-path="url(#clipPath1001)"
       inkscape:connector-curvature="0"
       id="path923"
       d="m 399.34086,142.01068 c -0.40908,-9.1796 -1.22407,-13.59629 -3.28191,-17.78569 -2.66191,-5.41916 -6.83198,-7.71955 -14.11077,-7.78409 -6.18311,-0.0548 -6.8962,0.35562 -15.76603,9.07472 -5.72075,5.62352 -7.79062,7.39176 -7.60195,6.49415 0.1426,-0.6784 0.61983,-2.95453 1.0605,-5.05808 0.44068,-2.10354 1.36757,-4.89225 2.05975,-6.19714 3.23256,-6.09386 12.16983,-15.0167 17.86274,-17.83388 3.04591,-1.50729 4.20808,-1.80051 7.99122,-2.01622 2.69706,-0.15378 5.42177,-0.0138 6.97276,0.35831 5.2977,1.2709 10.03123,7.65707 11.77039,15.87984 2.03953,9.64296 -0.77654,25.65116 -5.50842,31.31311 l -1.10229,1.31894 z"
       style="opacity:0.98000004;fill:#a6b25c;fill-opacity:0.98039216;stroke:#000000;stroke-width:1.53299999;stroke-miterlimit:4;stroke-dasharray:none;stroke-opacity:0.94871796" />
    <path
       clip-path="url(#clipPath997)"
       inkscape:connector-curvature="0"
       id="path925"
       d="m 375.50315,151.75959 c -3.88694,-1.45257 -7.07959,-4.50226 -11.68009,-11.15713 l -2.51072,-3.63189 2.97052,-3.63531 c 5.7814,-7.07526 10.85265,-10.71536 15.99819,-11.48339 3.23524,-0.48289 6.16513,0.93635 10.14115,4.91237 3.75181,3.75181 5.11644,6.50659 5.49489,11.09257 0.54742,6.63361 -0.86202,8.63296 -8.76331,12.43113 -4.06675,1.95489 -8.76832,2.54877 -11.65063,1.47165 z m -0.26089,-15.77104 c 4.34052,-2.21437 4.79734,-6.45166 0.69555,-6.45166 -3.03998,0 -6.3802,4.13607 -5.16856,6.40004 0.69493,1.29849 1.99944,1.31354 4.47301,0.0516 z"
       style="opacity:0.98000004;fill:#a6b25c;fill-opacity:0.98039216;stroke:#000000;stroke-width:1.53299999;stroke-miterlimit:4;stroke-dasharray:none;stroke-opacity:0.94871796" />
    <path
       clip-path="url(#clipPath993)"
       inkscape:connector-curvature="0"
       id="path927"
       d="m 411.81939,110.33985 c -1.3817,-1.52676 -3.96123,-7.54106 -4.22035,-9.83995 -0.22775,-2.020664 -0.10126,-2.330491 1.67666,-4.106685 1.39533,-1.393986 2.90615,-2.237497 5.50602,-3.074096 1.97067,-0.63413 3.75544,-0.980114 3.96617,-0.768854 1.13098,1.133837 -0.82492,11.680395 -2.99771,16.164225 -1.20347,2.48353 -2.62297,3.07048 -3.93079,1.62536 z"
       style="opacity:0.98000004;fill:#a6b25c;fill-opacity:0.98039216;stroke:#000000;stroke-width:1.53299999;stroke-miterlimit:4;stroke-dasharray:none;stroke-opacity:0.94871796" />
  </g>
</svg>
